Rosario-BoldItalic.ufo
<glyph name="exclam" format="2">
  <advance width="246"/>
  <unicode hex="0021"/>
  <note>
exclam
</note>
  <outline>
    <contour>
      <point x="120" y="732" type="line"/>
      <point x="77" y="219" type="line"/>
      <point x="167" y="219" type="line"/>
      <point x="268" y="732" type="line"/>
    </contour>
    <contour>
      <point x="176" y="73" type="curve" smooth="yes"/>
      <point x="176" y="109"/>
      <point x="148" y="136"/>
      <point x="111" y="136" type="curve" smooth="yes"/>
      <point x="68" y="136"/>
      <point x="25" y="96"/>
      <point x="25" y="52" type="curve" smooth="yes"/>
      <point x="25" y="16"/>
      <point x="53" y="-12"/>
      <point x="90" y="-12" type="curve" smooth="yes"/>
      <point x="135" y="-12"/>
      <point x="176" y="27"/>
    </contour>
  </outline>
</glyph>
<glyph name="dollar" format="2">
  <advance width="536"/>
  <unicode hex="0024"/>
  <note>
dollar
</note>
  <outline>
    <contour>
      <point x="367" y="706" type="curve" smooth="yes"/>
      <point x="219" y="706"/>
      <point x="88" y="638"/>
      <point x="88" y="476" type="curve" smooth="yes"/>
      <point x="88" y="308"/>
      <point x="351" y="316"/>
      <point x="351" y="204" type="curve" smooth="yes"/>
      <point x="351" y="131"/>
      <point x="287" y="84"/>
      <point x="218" y="84" type="curve" smooth="yes"/>
      <point x="158" y="84"/>
      <point x="101" y="113"/>
      <point x="61" y="157" type="curve"/>
      <point x="-2" y="49" type="line"/>
      <point x="61" y="6"/>
      <point x="142" y="-12"/>
      <point x="217" y="-12" type="curve" smooth="yes"/>
      <point x="366" y="-12"/>
      <point x="494" y="85"/>
      <point x="494" y="240" type="curve" smooth="yes"/>
      <point x="494" y="414"/>
      <point x="232" y="405"/>
      <point x="232" y="512" type="curve" smooth="yes"/>
      <point x="232" y="574"/>
      <point x="284" y="610"/>
      <point x="341" y="610" type="curve" smooth="yes"/>
      <point x="386" y="610"/>
      <point x="453" y="587"/>
      <point x="484" y="554" type="curve"/>
      <point x="543" y="646" type="line"/>
      <point x="504" y="681"/>
      <point x="419" y="706"/>
    </contour>
    <contour>
      <point x="261" y="43" type="line"/>
      <point x="197" y="43" type="line"/>
      <point x="129" y="-128" type="line"/>
      <point x="221" y="-128" type="line"/>
    </contour>
    <contour>
      <point x="307" y="674" type="line"/>
      <point x="375" y="674" type="line"/>
      <point x="437" y="834" type="line"/>
      <point x="343" y="834" type="line"/>
    </contour>
  </outline>
</glyph>
<glyph name="ampersand" format="2">
  <advance width="659"/>
  <unicode hex="0026"/>
  <note>
ampersand
</note>
  <guideline x="654" y="75" angle="0"/>
  <outline>
    <contour>
      <point x="231" y="424" type="line"/>
      <point x="95" y="379"/>
      <point x="1" y="277"/>
      <point x="1" y="172" type="curve" smooth="yes"/>
      <point x="1" y="61"/>
      <point x="90" y="-9"/>
      <point x="229" y="-9" type="curve" smooth="yes"/>
      <point x="413" y="-9"/>
      <point x="542" y="122"/>
      <point x="542" y="247" type="curve" smooth="yes"/>
      <point x="542" y="299"/>
      <point x="521" y="349"/>
      <point x="472" y="389" type="curve"/>
      <point x="390" y="343" type="line"/>
      <point x="427" y="308"/>
      <point x="444" y="267"/>
      <point x="444" y="228" type="curve" smooth="yes"/>
      <point x="444" y="145"/>
      <point x="369" y="69"/>
      <point x="255" y="69" type="curve" smooth="yes"/>
      <point x="180" y="69"/>
      <point x="126" y="121"/>
      <point x="126" y="201" type="curve" smooth="yes"/>
      <point x="126" y="267"/>
      <point x="174" y="326"/>
      <point x="242" y="350" type="curve"/>
    </contour>
    <contour>
      <point x="392" y="746" type="curve" smooth="yes"/>
      <point x="266" y="746"/>
      <point x="177" y="628"/>
      <point x="177" y="469" type="curve" smooth="yes"/>
      <point x="177" y="293"/>
      <point x="235" y="139"/>
      <point x="335" y="61" type="curve" smooth="yes"/>
      <point x="400" y="11"/>
      <point x="460" y="-9"/>
      <point x="531" y="-9" type="curve" smooth="yes"/>
      <point x="565" y="-9"/>
      <point x="601" y="-4"/>
      <point x="640" y="4" type="curve"/>
      <point x="626" y="86" type="line"/>
      <point x="600" y="79"/>
      <point x="577" y="75"/>
      <point x="555" y="75" type="curve" smooth="yes"/>
      <point x="509" y="75"/>
      <point x="470" y="93"/>
      <point x="422" y="134" type="curve" smooth="yes"/>
      <point x="341" y="202"/>
      <point x="300" y="335"/>
      <point x="300" y="496" type="curve" smooth="yes"/>
      <point x="300" y="599"/>
      <point x="334" y="665"/>
      <point x="388" y="665" type="curve" smooth="yes"/>
      <point x="419" y="665"/>
      <point x="454" y="644"/>
      <point x="490" y="603" type="curve"/>
      <point x="560" y="684" type="line"/>
      <point x="504" y="725"/>
      <point x="446" y="746"/>
    </contour>
    <contour>
      <point x="401" y="431" type="line"/>
      <point x="390" y="343" type="line"/>
      <point x="622" y="343" type="line"/>
      <point x="636" y="431" type="line"/>
    </contour>
  </outline>
</glyph>
<glyph name="quotesingle" format="2">
  <advance width="157"/>
  <unicode hex="0027"/>
  <note>
quotesingle
</note>
  <outline>
    <contour>
      <point x="146" y="559" type="line"/>
      <point x="170" y="732" type="line"/>
      <point x="76" y="732" type="line"/>
      <point x="52" y="559" type="line"/>
      <point x="73" y="449" type="line"/>
      <point x="94" y="449" type="line"/>
    </contour>
  </outline>
</glyph>
<glyph name="slash" format="2">
  <advance width="293"/>
  <unicode hex="002F"/>
  <note>
slash
</note>
  <outline>
    <contour>
      <point x="-18" y="0" type="line"/>
      <point x="75" y="0" type="line"/>
      <point x="345" y="732" type="line"/>
      <point x="251" y="732" type="line"/>
    </contour>
  </outline>
</glyph>
<glyph name="zero" format="2">
  <advance width="579"/>
  <unicode hex="0030"/>
  <note>
zero
</note>
  <guideline x="42" y="417" angle="90"/>
  <guideline x="159" y="417" angle="90"/>
  <guideline x="420" y="417" angle="90"/>
  <guideline x="537" y="417" angle="90"/>
  <outline>
    <contour>
      <point x="324" y="510" type="curve" smooth="yes"/>
      <point x="163" y="510"/>
      <point x="42" y="386"/>
      <point x="42" y="197" type="curve" smooth="yes"/>
      <point x="42" y="76"/>
      <point x="127" y="-12"/>
      <point x="255" y="-12" type="curve" smooth="yes"/>
      <point x="450" y="-12"/>
      <point x="537" y="149"/>
      <point x="537" y="301" type="curve" smooth="yes"/>
      <point x="537" y="424"/>
      <point x="455" y="510"/>
    </contour>
    <contour>
      <point x="313" y="429" type="curve" smooth="yes"/>
      <point x="394" y="429"/>
      <point x="420" y="371"/>
      <point x="420" y="303" type="curve" smooth="yes"/>
      <point x="420" y="202"/>
      <point x="385" y="69"/>
      <point x="266" y="69" type="curve" smooth="yes"/>
      <point x="184" y="69"/>
      <point x="159" y="123"/>
      <point x="159" y="189" type="curve" smooth="yes"/>
      <point x="159" y="286"/>
      <point x="191" y="429"/>
    </contour>
  </outline>
</glyph>
<glyph name="one" format="2">
  <advance width="391"/>
  <unicode hex="0031"/>
  <note>
one
</note>
  <outline>
    <contour>
      <point x="303" y="498" type="line"/>
      <point x="229" y="498" type="line"/>
      <point x="54" y="413" type="line"/>
      <point x="66" y="349" type="line"/>
      <point x="172" y="378" type="line"/>
      <point x="136" y="99" type="line"/>
      <point x="33" y="99" type="line"/>
      <point x="20" y="0" type="line"/>
      <point x="337" y="0" type="line"/>
      <point x="350" y="99" type="line"/>
      <point x="251" y="99" type="line"/>
    </contour>
  </outline>
</glyph>
<glyph name="three" format="2">
  <advance width="410"/>
  <unicode hex="0033"/>
  <note>
three
</note>
  <outline>
    <contour>
      <point x="267" y="512" type="curve" smooth="yes"/>
      <point x="198" y="512"/>
      <point x="112" y="487"/>
      <point x="40" y="437" type="curve"/>
      <point x="89" y="355" type="line"/>
      <point x="126" y="392"/>
      <point x="188" y="419"/>
      <point x="227" y="419" type="curve" smooth="yes"/>
      <point x="255" y="419"/>
      <point x="266" y="402"/>
      <point x="266" y="376" type="curve" smooth="yes"/>
      <point x="266" y="298"/>
      <point x="139" y="217"/>
      <point x="62" y="184" type="curve"/>
      <point x="84" y="126" type="line"/>
      <point x="105" y="134"/>
      <point x="127" y="138"/>
      <point x="146" y="138" type="curve" smooth="yes"/>
      <point x="193" y="138"/>
      <point x="230" y="115"/>
      <point x="230" y="67" type="curve" smooth="yes"/>
      <point x="230" y="-85"/>
      <point x="67" y="-128"/>
      <point x="-101" y="-139" type="curve"/>
      <point x="-104" y="-198" type="line"/>
      <point x="127" y="-198"/>
      <point x="362" y="-103"/>
      <point x="362" y="78" type="curve" smooth="yes"/>
      <point x="362" y="161"/>
      <point x="285" y="195"/>
      <point x="217" y="195" type="curve"/>
      <point x="307" y="239"/>
      <point x="396" y="322"/>
      <point x="396" y="410" type="curve" smooth="yes"/>
      <point x="396" y="475"/>
      <point x="345" y="512"/>
    </contour>
  </outline>
</glyph>
<glyph name="four" format="2">
  <advance width="497"/>
  <unicode hex="0034"/>
  <note>
four
</note>
  <outline>
    <contour>
      <point x="302" y="498" type="line"/>
      <point x="-26" y="57" type="line"/>
      <point x="-34" y="-1" type="line"/>
      <point x="238" y="-1" type="line"/>
      <point x="212" y="-184" type="line"/>
      <point x="337" y="-184" type="line"/>
      <point x="363" y="-1" type="line"/>
      <point x="442" y="-1" type="line"/>
      <point x="484" y="99" type="line"/>
      <point x="377" y="99" type="line"/>
      <point x="433" y="498" type="line"/>
    </contour>
    <contour>
      <point x="287" y="349" type="line"/>
      <point x="252" y="99" type="line"/>
      <point x="103" y="99" type="line"/>
    </contour>
  </outline>
</glyph>
<glyph name="five" format="2">
  <advance width="409"/>
  <unicode hex="0035"/>
  <note>
five
</note>
  <outline>
    <contour>
      <point x="165" y="498" type="line"/>
      <point x="32" y="255" type="line"/>
      <point x="121" y="227"/>
      <point x="192" y="175"/>
      <point x="192" y="97" type="curve" smooth="yes"/>
      <point x="192" y="-30"/>
      <point x="71" y="-116"/>
      <point x="-69" y="-150" type="curve"/>
      <point x="-61" y="-207" type="line"/>
      <point x="127" y="-185"/>
      <point x="327" y="-63"/>
      <point x="327" y="114" type="curve" smooth="yes"/>
      <point x="327" y="205"/>
      <point x="255" y="263"/>
      <point x="151" y="300" type="curve"/>
      <point x="196" y="377" type="line"/>
      <point x="400" y="377" type="line"/>
      <point x="452" y="498" type="line"/>
    </contour>
  </outline>
</glyph>
<glyph name="six" format="2">
  <advance width="553"/>
  <unicode hex="0036"/>
  <note>
six
</note>
  <outline>
    <contour>
      <point x="535" y="730" type="line"/>
      <point x="283" y="664"/>
      <point x="28" y="436"/>
      <point x="28" y="192" type="curve" smooth="yes"/>
      <point x="28" y="53"/>
      <point x="120" y="-12"/>
      <point x="233" y="-12" type="curve" smooth="yes"/>
      <point x="390" y="-12"/>
      <point x="521" y="114"/>
      <point x="521" y="265" type="curve" smooth="yes"/>
      <point x="521" y="355"/>
      <point x="453" y="421"/>
      <point x="346" y="421" type="curve" smooth="yes"/>
      <point x="300" y="421"/>
      <point x="249" y="408"/>
      <point x="197" y="380" type="curve"/>
      <point x="170" y="296" type="line"/>
      <point x="214" y="323"/>
      <point x="256" y="336"/>
      <point x="291" y="336" type="curve" smooth="yes"/>
      <point x="358" y="336"/>
      <point x="385" y="289"/>
      <point x="385" y="236" type="curve" smooth="yes"/>
      <point x="385" y="160"/>
      <point x="333" y="71"/>
      <point x="249" y="71" type="curve" smooth="yes"/>
      <point x="196" y="71"/>
      <point x="159" y="109"/>
      <point x="159" y="190" type="curve" smooth="yes"/>
      <point x="159" y="389"/>
      <point x="333" y="568"/>
      <point x="554" y="665" type="curve"/>
    </contour>
  </outline>
</glyph>
<glyph name="nine" format="2">
  <advance width="552"/>
  <unicode hex="0039"/>
  <note>
nine
</note>
  <outline>
    <contour>
      <point x="320" y="511" type="curve" smooth="yes"/>
      <point x="164" y="511"/>
      <point x="33" y="387"/>
      <point x="33" y="239" type="curve" smooth="yes"/>
      <point x="33" y="152"/>
      <point x="86" y="78"/>
      <point x="207" y="78" type="curve" smooth="yes"/>
      <point x="253" y="78"/>
      <point x="304" y="91"/>
      <point x="356" y="119" type="curve"/>
      <point x="382" y="203" type="line"/>
      <point x="339" y="176"/>
      <point x="297" y="163"/>
      <point x="262" y="163" type="curve" smooth="yes"/>
      <point x="196" y="163"/>
      <point x="167" y="209"/>
      <point x="167" y="262" type="curve" smooth="yes"/>
      <point x="167" y="338"/>
      <point x="219" y="428"/>
      <point x="304" y="428" type="curve" smooth="yes"/>
      <point x="357" y="428"/>
      <point x="394" y="390"/>
      <point x="394" y="311" type="curve" smooth="yes"/>
      <point x="394" y="113"/>
      <point x="222" y="-66"/>
      <point x="1" y="-146" type="curve"/>
      <point x="20" y="-211" type="line"/>
      <point x="270" y="-167"/>
      <point x="525" y="63"/>
      <point x="525" y="307" type="curve" smooth="yes"/>
      <point x="525" y="446"/>
      <point x="433" y="511"/>
    </contour>
  </outline>
</glyph>
<glyph name="colon" format="2">
  <advance width="247"/>
  <unicode hex="003A"/>
  <note>
colon
</note>
  <outline>
    <contour>
      <point x="217" y="354" type="curve" smooth="yes"/>
      <point x="223" y="396"/>
      <point x="193" y="431"/>
      <point x="150" y="431" type="curve" smooth="yes"/>
      <point x="108" y="431"/>
      <point x="68" y="396"/>
      <point x="62" y="354" type="curve" smooth="yes"/>
      <point x="56" y="311"/>
      <point x="86" y="276"/>
      <point x="129" y="276" type="curve" smooth="yes"/>
      <point x="171" y="276"/>
      <point x="211" y="311"/>
    </contour>
    <contour>
      <point x="177" y="65" type="curve" smooth="yes"/>
      <point x="183" y="108"/>
      <point x="153" y="143"/>
      <point x="110" y="143" type="curve" smooth="yes"/>
      <point x="68" y="143"/>
      <point x="28" y="108"/>
      <point x="22" y="65" type="curve" smooth="yes"/>
      <point x="16" y="23"/>
      <point x="46" y="-12"/>
      <point x="89" y="-12" type="curve" smooth="yes"/>
      <point x="131" y="-12"/>
      <point x="171" y="23"/>
    </contour>
  </outline>
</glyph>
<glyph name="less" format="2">
  <advance width="630"/>
  <unicode hex="003C"/>
  <note>
less
</note>
  <outline>
    <contour>
      <point x="70" y="275" type="line"/>
      <point x="62" y="223" type="line"/>
      <point x="527" y="-12" type="line"/>
      <point x="540" y="76" type="line"/>
      <point x="196" y="249" type="line"/>
      <point x="588" y="419" type="line"/>
      <point x="601" y="509" type="line"/>
    </contour>
  </outline>
</glyph>
<glyph name="equal" format="2">
  <advance width="630"/>
  <unicode hex="003D"/>
  <note>
equal
</note>
  <outline>
    <contour>
      <point x="86" y="390" type="line"/>
      <point x="73" y="302" type="line"/>
      <point x="571" y="302" type="line"/>
      <point x="584" y="390" type="line"/>
    </contour>
    <contour>
      <point x="59" y="197" type="line"/>
      <point x="46" y="109" type="line"/>
      <point x="544" y="109" type="line"/>
      <point x="557" y="197" type="line"/>
    </contour>
  </outline>
</glyph>
<glyph name="greater" format="2">
  <advance width="630"/>
  <unicode hex="003E"/>
  <note>
greater
</note>
  <outline>
    <contour>
      <point x="42" y="76" type="line"/>
      <point x="29" y="-12" type="line"/>
      <point x="560" y="223" type="line"/>
      <point x="568" y="275" type="line"/>
      <point x="103" y="509" type="line"/>
      <point x="90" y="419" type="line"/>
      <point x="434" y="249" type="line"/>
    </contour>
  </outline>
</glyph>
<glyph name="C" format="2">
  <advance width="587"/>
  <unicode hex="0043"/>
  <note>
C
</note>
  <guideline x="584" y="82" angle="0"/>
  <anchor x="296" y="0" name="bottom"/>
  <anchor x="396" y="732" name="top"/>
  <outline>
    <contour>
      <point x="304" y="-12" type="curve" smooth="yes"/>
      <point x="397" y="-12"/>
      <point x="465" y="14"/>
      <point x="543" y="62" type="curve"/>
      <point x="507" y="134" type="line"/>
      <point x="439" y="99"/>
      <point x="379" y="82"/>
      <point x="329" y="82" type="curve" smooth="yes"/>
      <point x="213" y="82"/>
      <point x="160" y="193"/>
      <point x="160" y="317" type="curve" smooth="yes"/>
      <point x="160" y="473"/>
      <point x="245" y="649"/>
      <point x="398" y="649" type="curve" smooth="yes"/>
      <point x="449" y="649"/>
      <point x="510" y="626"/>
      <point x="541" y="583" type="curve"/>
      <point x="622" y="675" type="line"/>
      <point x="573" y="726"/>
      <point x="474" y="746"/>
      <point x="406" y="746" type="curve" smooth="yes"/>
      <point x="161" y="746"/>
      <point x="17" y="508"/>
      <point x="17" y="298" type="curve" smooth="yes"/>
      <point x="17" y="134"/>
      <point x="105" y="-12"/>
    </contour>
  </outline>
</glyph>
<glyph name="L" format="2">
  <advance width="458"/>
  <unicode hex="004C"/>
  <note>
L
</note>
  <anchor x="232" y="0" name="bottom"/>
  <anchor x="127" y="367" name="center"/>
  <anchor x="168" y="732" name="top"/>
  <anchor x="179" y="494" name="topright"/>
  <outline>
    <contour>
      <point x="240" y="732" type="line"/>
      <point x="96" y="732" type="line"/>
      <point x="101" y="671" type="line"/>
      <point x="11" y="0" type="line"/>
      <point x="415" y="0" type="line"/>
      <point x="428" y="99" type="line"/>
      <point x="156" y="99" type="line"/>
    </contour>
  </outline>
</glyph>
<glyph name="R" format="2">
  <advance width="565"/>
  <unicode hex="0052"/>
  <note>
R
</note>
  <anchor x="249" y="0" name="bottom"/>
  <anchor x="311" y="732" name="top"/>
  <outline>
    <contour>
      <point x="142" y="0" type="line"/>
      <point x="226" y="632" type="line"/>
      <point x="309" y="632" type="line" smooth="yes"/>
      <point x="370" y="632"/>
      <point x="410" y="602"/>
      <point x="410" y="541" type="curve" smooth="yes"/>
      <point x="410" y="435"/>
      <point x="341" y="383"/>
      <point x="254" y="383" type="curve" smooth="yes"/>
      <point x="221" y="383" type="line"/>
      <point x="396" y="0" type="line"/>
      <point x="535" y="0" type="line"/>
      <point x="394" y="308" type="line"/>
      <point x="466" y="344"/>
      <point x="549" y="416"/>
      <point x="549" y="543" type="curve" smooth="yes"/>
      <point x="549" y="676"/>
      <point x="455" y="732"/>
      <point x="335" y="732" type="curve" smooth="yes"/>
      <point x="95" y="732" type="line"/>
      <point x="101" y="671" type="line"/>
      <point x="11" y="0" type="line"/>
    </contour>
  </outline>
</glyph>
<glyph name="U" format="2">
  <advance width="659"/>
  <unicode hex="0055"/>
  <note>
U
</note>
  <anchor x="279" y="0" name="bottom"/>
  <anchor x="331" y="0" name="ogonek"/>
  <anchor x="387" y="732" name="top"/>
  <anchor x="458" y="748" name="topright"/>
  <outline>
    <contour>
      <point x="234" y="732" type="line"/>
      <point x="85" y="732" type="line"/>
      <point x="92" y="672" type="line"/>
      <point x="39" y="278" type="line" smooth="yes"/>
      <point x="36" y="257"/>
      <point x="35" y="237"/>
      <point x="35" y="216" type="curve" smooth="yes"/>
      <point x="35" y="63"/>
      <point x="125" y="-11"/>
      <point x="274" y="-11" type="curve" smooth="yes"/>
      <point x="479" y="-11"/>
      <point x="563" y="102"/>
      <point x="587" y="278" type="curve" smooth="yes"/>
      <point x="648" y="732" type="line"/>
      <point x="541" y="732" type="line"/>
      <point x="475" y="245" type="line" smooth="yes"/>
      <point x="464" y="160"/>
      <point x="399" y="84"/>
      <point x="301" y="84" type="curve" smooth="yes"/>
      <point x="219" y="84"/>
      <point x="167" y="134"/>
      <point x="167" y="216" type="curve" smooth="yes"/>
      <point x="167" y="225"/>
      <point x="168" y="234"/>
      <point x="169" y="243" type="curve" smooth="yes"/>
    </contour>
  </outline>
</glyph>
<glyph name="W" format="2">
  <advance width="875"/>
  <unicode hex="0057"/>
  <note>
W
</note>
  <anchor x="493" y="732" name="top"/>
  <outline>
    <contour>
      <point x="172" y="732" type="curve"/>
      <point x="35" y="732" type="line"/>
      <point x="128" y="-2" type="line"/>
      <point x="260" y="-2" type="line"/>
      <point x="375" y="289"/>
      <point x="402" y="341"/>
      <point x="456" y="526" type="curve" smooth="yes"/>
      <point x="461" y="344"/>
      <point x="474" y="304"/>
      <point x="512" y="-2" type="curve"/>
      <point x="646" y="-2" type="line"/>
      <point x="930" y="732" type="line"/>
      <point x="818" y="732" type="line"/>
      <point x="699" y="429"/>
      <point x="668" y="368"/>
      <point x="614" y="182" type="curve" smooth="yes"/>
      <point x="611" y="337"/>
      <point x="593" y="425"/>
      <point x="554" y="732" type="curve"/>
      <point x="435" y="732" type="line"/>
      <point x="316" y="435"/>
      <point x="275" y="358"/>
      <point x="234" y="182" type="curve" smooth="yes"/>
      <point x="225" y="342"/>
      <point x="211" y="423"/>
    </contour>
  </outline>
</glyph>
<glyph name="Y" format="2">
  <advance width="523"/>
  <unicode hex="0059"/>
  <note>
Y
</note>
  <anchor x="210" y="0" name="bottom"/>
  <anchor x="311" y="732" name="top"/>
  <outline>
    <contour>
      <point x="181" y="732" type="line"/>
      <point x="35" y="732" type="line"/>
      <point x="184" y="330" type="line"/>
      <point x="141" y="0" type="line"/>
      <point x="271" y="0" type="line"/>
      <point x="315" y="327" type="line"/>
      <point x="578" y="732" type="line"/>
      <point x="448" y="732" type="line"/>
      <point x="277" y="472" type="line"/>
    </contour>
  </outline>
</glyph>
<glyph name="bracketright" format="2">
  <advance width="311"/>
  <unicode hex="005D"/>
  <note>
bracketright
</note>
  <outline>
    <contour>
      <point x="-12" y="-132" type="line"/>
      <point x="195" y="-132" type="line"/>
      <point x="310" y="732" type="line"/>
      <point x="103" y="732" type="line"/>
      <point x="96" y="673" type="line"/>
      <point x="189" y="673" type="line"/>
      <point x="90" y="-73" type="line"/>
      <point x="-4" y="-73" type="line"/>
    </contour>
  </outline>
</glyph>
<glyph name="underscore" format="2">
  <advance width="495"/>
  <unicode hex="005F"/>
  <note>
underscore
</note>
  <outline>
    <contour>
      <point x="-12" y="-143" type="line"/>
      <point x="496" y="-143" type="line"/>
      <point x="509" y="-47" type="line"/>
      <point x="1" y="-47" type="line"/>
    </contour>
  </outline>
</glyph>
<glyph name="grave" format="2">
  <advance width="284"/>
  <unicode hex="0060"/>
  <note>
grave
</note>
  <anchor x="254" y="497" name="_top"/>
  <outline>
    <contour>
      <point x="229" y="735" type="line"/>
      <point x="84" y="735" type="line"/>
      <point x="211" y="570" type="line"/>
      <point x="314" y="570" type="line"/>
    </contour>
  </outline>
</glyph>
<glyph name="b" format="2">
  <advance width="506"/>
  <unicode hex="0062"/>
  <note>
b
</note>
  <outline>
    <contour>
      <point x="28" y="41" type="line"/>
      <point x="145" y="75" type="line"/>
      <point x="184" y="353" type="line"/>
      <point x="201" y="377"/>
      <point x="251" y="422"/>
      <point x="295" y="422" type="curve" smooth="yes"/>
      <point x="350" y="422"/>
      <point x="368" y="368"/>
      <point x="368" y="293" type="curve" smooth="yes"/>
      <point x="368" y="188"/>
      <point x="324" y="70"/>
      <point x="226" y="70" type="curve" smooth="yes"/>
      <point x="186" y="70"/>
      <point x="131" y="84"/>
      <point x="100" y="122" type="curve"/>
      <point x="28" y="41" type="line"/>
      <point x="89" y="5"/>
      <point x="164" y="-12"/>
      <point x="222" y="-12" type="curve" smooth="yes"/>
      <point x="404" y="-12"/>
      <point x="485" y="147"/>
      <point x="485" y="299" type="curve" smooth="yes"/>
      <point x="485" y="418"/>
      <point x="439" y="511"/>
      <point x="325" y="511" type="curve" smooth="yes"/>
      <point x="282" y="511"/>
      <point x="230" y="491"/>
      <point x="198" y="459" type="curve"/>
      <point x="239" y="768" type="line"/>
      <point x="112" y="768" type="line"/>
      <point x="117" y="713" type="line"/>
    </contour>
  </outline>
</glyph>
<glyph name="c" format="2">
  <advance width="422"/>
  <unicode hex="0063"/>
  <note>
c
</note>
  <guideline x="139" y="409" angle="90"/>
  <guideline x="22" y="409" angle="90"/>
  <anchor x="209" y="0" name="bottom"/>
  <anchor x="281" y="497" name="top"/>
  <outline>
    <contour>
      <point x="373" y="378" type="curve"/>
      <point x="442" y="462" type="line"/>
      <point x="389" y="497"/>
      <point x="336" y="510"/>
      <point x="287" y="510" type="curve" smooth="yes"/>
      <point x="141" y="510"/>
      <point x="22" y="382"/>
      <point x="22" y="207" type="curve" smooth="yes"/>
      <point x="22" y="87"/>
      <point x="80" y="-12"/>
      <point x="222" y="-12" type="curve" smooth="yes"/>
      <point x="289" y="-12"/>
      <point x="338" y="6"/>
      <point x="392" y="35" type="curve"/>
      <point x="365" y="105" type="line"/>
      <point x="318" y="85"/>
      <point x="278" y="74"/>
      <point x="244" y="74" type="curve" smooth="yes"/>
      <point x="177" y="74"/>
      <point x="139" y="118"/>
      <point x="139" y="219" type="curve" smooth="yes"/>
      <point x="139" y="320"/>
      <point x="184" y="422"/>
      <point x="278" y="422" type="curve" smooth="yes"/>
      <point x="316" y="422"/>
      <point x="349" y="403"/>
    </contour>
  </outline>
</glyph>
<glyph name="e" format="2">
  <advance width="466"/>
  <unicode hex="0065"/>
  <note>
e
</note>
  <guideline x="138" y="418" angle="90"/>
  <guideline x="21" y="418" angle="90"/>
  <guideline x="418" y="76" angle="0"/>
  <anchor x="222" y="0" name="bottom"/>
  <anchor x="280" y="0" name="ogonek"/>
  <anchor x="287" y="497" name="top"/>
  <outline>
    <contour>
      <point x="294" y="510" type="curve" smooth="yes"/>
      <point x="122" y="510"/>
      <point x="21" y="356"/>
      <point x="21" y="204" type="curve" smooth="yes"/>
      <point x="21" y="85"/>
      <point x="82" y="-12"/>
      <point x="238" y="-12" type="curve" smooth="yes"/>
      <point x="360" y="-12"/>
      <point x="436" y="54"/>
      <point x="436" y="54" type="curve"/>
      <point x="401" y="122" type="line"/>
      <point x="347" y="93"/>
      <point x="296" y="76"/>
      <point x="253" y="76" type="curve" smooth="yes"/>
      <point x="184" y="76"/>
      <point x="138" y="120"/>
      <point x="138" y="221" type="curve" smooth="yes"/>
      <point x="138" y="321"/>
      <point x="189" y="426"/>
      <point x="285" y="426" type="curve" smooth="yes"/>
      <point x="314" y="426"/>
      <point x="329" y="410"/>
      <point x="329" y="387" type="curve" smooth="yes"/>
      <point x="329" y="338"/>
      <point x="270" y="277"/>
      <point x="125" y="277" type="curve"/>
      <point x="125" y="194" type="line"/>
      <point x="390" y="188"/>
      <point x="452" y="317"/>
      <point x="452" y="384" type="curve" smooth="yes"/>
      <point x="452" y="471"/>
      <point x="380" y="510"/>
    </contour>
  </outline>
</glyph>
<glyph name="j" format="2">
  <advance width="228"/>
  <unicode hex="006A"/>
  <note>
j
</note>
  <outline>
    <contour>
      <point x="248" y="689" type="curve" smooth="yes"/>
      <point x="248" y="725"/>
      <point x="222" y="754"/>
      <point x="185" y="754" type="curve" smooth="yes"/>
      <point x="140" y="754"/>
      <point x="101" y="712"/>
      <point x="101" y="667" type="curve" smooth="yes"/>
      <point x="101" y="632"/>
      <point x="128" y="601"/>
      <point x="165" y="601" type="curve" smooth="yes"/>
      <point x="210" y="601"/>
      <point x="248" y="644"/>
    </contour>
    <contour>
      <point x="209" y="497" type="line"/>
      <point x="83" y="497" type="line"/>
      <point x="87" y="444" type="line"/>
      <point x="32" y="39" type="line" smooth="yes"/>
      <point x="22" y="-37"/>
      <point x="1" y="-128"/>
      <point x="-81" y="-169" type="curve"/>
      <point x="-67" y="-224" type="line"/>
      <point x="91" y="-206"/>
      <point x="132" y="-64"/>
      <point x="150" y="65" type="curve" smooth="yes"/>
    </contour>
  </outline>
</glyph>
<glyph name="k" format="2">
  <advance width="491"/>
  <unicode hex="006B"/>
  <note>
k
</note>
  <anchor x="209" y="0" name="bottom"/>
  <outline>
    <contour>
      <point x="352" y="511" type="curve" smooth="yes"/>
      <point x="296" y="511"/>
      <point x="227" y="481"/>
      <point x="176" y="428" type="curve"/>
      <point x="176" y="343" type="line"/>
      <point x="209" y="381"/>
      <point x="269" y="414"/>
      <point x="303" y="414" type="curve" smooth="yes"/>
      <point x="332" y="414"/>
      <point x="350" y="400"/>
      <point x="350" y="366" type="curve" smooth="yes"/>
      <point x="350" y="322"/>
      <point x="316" y="261"/>
      <point x="198" y="235" type="curve"/>
      <point x="224" y="157"/>
      <point x="263" y="73"/>
      <point x="304" y="0" type="curve"/>
      <point x="436" y="0" type="line"/>
      <point x="388" y="72"/>
      <point x="348" y="140"/>
      <point x="324" y="208" type="curve"/>
      <point x="426" y="260"/>
      <point x="467" y="337"/>
      <point x="467" y="404" type="curve" smooth="yes"/>
      <point x="467" y="476"/>
      <point x="417" y="511"/>
    </contour>
    <contour>
      <point x="246" y="769" type="line"/>
      <point x="117" y="769" type="line"/>
      <point x="122" y="715" type="line"/>
      <point x="27" y="0" type="line"/>
      <point x="143" y="0" type="line"/>
    </contour>
  </outline>
</glyph>
<glyph name="m" format="2">
  <advance width="758"/>
  <unicode hex="006D"/>
  <note>
m
</note>
  <outline>
    <contour>
      <point x="185" y="508" type="curve"/>
      <point x="64" y="493" type="line"/>
      <point x="77" y="473"/>
      <point x="78" y="437"/>
      <point x="78" y="414" type="curve" smooth="yes"/>
      <point x="78" y="394"/>
      <point x="77" y="375"/>
      <point x="75" y="356" type="curve" smooth="yes"/>
      <point x="27" y="0" type="line"/>
      <point x="141" y="0" type="line"/>
      <point x="190" y="361" type="line"/>
      <point x="214" y="385"/>
      <point x="258" y="414"/>
      <point x="293" y="414" type="curve" smooth="yes"/>
      <point x="330" y="414"/>
      <point x="344" y="393"/>
      <point x="344" y="359" type="curve" smooth="yes"/>
      <point x="344" y="351"/>
      <point x="343" y="343"/>
      <point x="342" y="335" type="curve" smooth="yes"/>
      <point x="297" y="0" type="line"/>
      <point x="412" y="0" type="line"/>
      <point x="460" y="362" type="line"/>
      <point x="484" y="384"/>
      <point x="529" y="414"/>
      <point x="563" y="414" type="curve" smooth="yes"/>
      <point x="601" y="414"/>
      <point x="616" y="397"/>
      <point x="616" y="360" type="curve" smooth="yes"/>
      <point x="616" y="351"/>
      <point x="615" y="341"/>
      <point x="614" y="332" type="curve" smooth="yes"/>
      <point x="570" y="0" type="line"/>
      <point x="694" y="0" type="line"/>
      <point x="691" y="53" type="line"/>
      <point x="729" y="339" type="line" smooth="yes"/>
      <point x="731" y="355"/>
      <point x="733" y="372"/>
      <point x="733" y="389" type="curve" smooth="yes"/>
      <point x="733" y="466"/>
      <point x="700" y="510"/>
      <point x="619" y="510" type="curve" smooth="yes"/>
      <point x="556" y="510"/>
      <point x="500" y="479"/>
      <point x="455" y="437" type="curve"/>
      <point x="441" y="489"/>
      <point x="398" y="510"/>
      <point x="347" y="510" type="curve" smooth="yes"/>
      <point x="285" y="510"/>
      <point x="239" y="482"/>
      <point x="193" y="444" type="curve"/>
      <point x="193" y="465"/>
      <point x="191" y="487"/>
    </contour>
  </outline>
</glyph>
<glyph name="q" format="2">
  <advance width="497"/>
  <unicode hex="0071"/>
  <note>
q
</note>
  <outline>
    <contour>
      <point x="421" y="500" type="line"/>
      <point x="359" y="407" type="line"/>
      <point x="348" y="334" type="line" smooth="yes"/>
      <point x="328" y="204"/>
      <point x="294" y="70"/>
      <point x="209" y="70" type="curve" smooth="yes"/>
      <point x="157" y="70"/>
      <point x="138" y="132"/>
      <point x="138" y="204" type="curve" smooth="yes"/>
      <point x="138" y="340"/>
      <point x="195" y="427"/>
      <point x="280" y="427" type="curve" smooth="yes"/>
      <point x="320" y="427"/>
      <point x="360" y="407"/>
      <point x="406" y="365" type="curve"/>
      <point x="406" y="450" type="line"/>
      <point x="370" y="494"/>
      <point x="309" y="509"/>
      <point x="274" y="509" type="curve" smooth="yes"/>
      <point x="104" y="509"/>
      <point x="21" y="347"/>
      <point x="21" y="201" type="curve" smooth="yes"/>
      <point x="21" y="87"/>
      <point x="69" y="-12"/>
      <point x="186" y="-12" type="curve" smooth="yes"/>
      <point x="229" y="-12"/>
      <point x="271" y="4"/>
      <point x="301" y="33" type="curve"/>
      <point x="305" y="33" type="line"/>
      <point x="270" y="-224" type="line"/>
      <point x="397" y="-224" type="line"/>
      <point x="392" y="-169" type="line"/>
      <point x="484" y="500" type="line"/>
    </contour>
  </outline>
</glyph>
<glyph name="r" format="2">
  <advance width="335"/>
  <unicode hex="0072"/>
  <note>
r
</note>
  <anchor x="86" y="0" name="bottom"/>
  <anchor x="196" y="497" name="top"/>
  <outline>
    <contour>
      <point x="186" y="507" type="curve"/>
      <point x="64" y="497" type="line"/>
      <point x="78" y="474"/>
      <point x="80" y="439"/>
      <point x="80" y="413" type="curve" smooth="yes"/>
      <point x="80" y="396"/>
      <point x="78" y="376"/>
      <point x="76" y="363" type="curve" smooth="yes"/>
      <point x="28" y="0" type="line"/>
      <point x="142" y="0" type="line"/>
      <point x="182" y="289" type="line"/>
      <point x="227" y="349"/>
      <point x="275" y="381"/>
      <point x="331" y="381" type="curve"/>
      <point x="366" y="507" type="line"/>
      <point x="299" y="507"/>
      <point x="232" y="454"/>
      <point x="195" y="402" type="curve"/>
      <point x="198" y="431"/>
      <point x="194" y="479"/>
    </contour>
  </outline>
</glyph>
<glyph name="w" format="2">
  <advance width="638"/>
  <unicode hex="0077"/>
  <note>
w
</note>
  <anchor x="354" y="497" name="top"/>
  <outline>
    <contour>
      <point x="137" y="497" type="curve"/>
      <point x="15" y="497" type="line"/>
      <point x="89" y="-4" type="line"/>
      <point x="188" y="-4" type="line"/>
      <point x="267" y="176"/>
      <point x="300" y="240"/>
      <point x="320" y="335" type="curve" smooth="yes"/>
      <point x="321" y="219"/>
      <point x="332" y="187"/>
      <point x="360" y="-4" type="curve"/>
      <point x="459" y="-4" type="line"/>
      <point x="678" y="497" type="line"/>
      <point x="563" y="497" type="line"/>
      <point x="485" y="309"/>
      <point x="464" y="259"/>
      <point x="442" y="173" type="curve"/>
      <point x="448" y="250"/>
      <point x="432" y="331"/>
      <point x="408" y="497" type="curve"/>
      <point x="296" y="497" type="line"/>
      <point x="205" y="281"/>
      <point x="188" y="246"/>
      <point x="171" y="173" type="curve"/>
      <point x="176" y="257"/>
      <point x="166" y="295"/>
    </contour>
  </outline>
</glyph>
<glyph name="y" format="2">
  <advance width="419"/>
  <unicode hex="0079"/>
  <note>
y
</note>
  <anchor x="283" y="0" name="bottom"/>
  <anchor x="237" y="497" name="top"/>
  <outline>
    <contour>
      <point x="-48" y="-150" type="curve"/>
      <point x="-57" y="-230" type="line"/>
      <point x="99" y="-230"/>
      <point x="163" y="-137"/>
      <point x="226" y="-3" type="curve" smooth="yes"/>
      <point x="459" y="497" type="line"/>
      <point x="347" y="497" type="line"/>
      <point x="276" y="342"/>
      <point x="232" y="270"/>
      <point x="196" y="146" type="curve"/>
      <point x="190" y="281"/>
      <point x="168" y="348"/>
      <point x="137" y="497" type="curve"/>
      <point x="15" y="497" type="line"/>
      <point x="120" y="1" type="line"/>
      <point x="90" y="-57"/>
      <point x="40" y="-150"/>
    </contour>
  </outline>
</glyph>
<glyph name="braceright" format="2">
  <advance width="321"/>
  <unicode hex="007D"/>
  <note>
braceright
</note>
  <outline>
    <contour>
      <point x="147" y="739" type="curve" smooth="yes"/>
      <point x="101" y="739" type="line"/>
      <point x="92" y="676" type="line"/>
      <point x="165" y="676"/>
      <point x="181" y="666"/>
      <point x="170" y="592" type="curve" smooth="yes"/>
      <point x="146" y="426" type="line" smooth="yes"/>
      <point x="139" y="378"/>
      <point x="139" y="321"/>
      <point x="182" y="296" type="curve"/>
      <point x="131" y="271"/>
      <point x="116" y="213"/>
      <point x="109" y="165" type="curve" smooth="yes"/>
      <point x="85" y="-1" type="line" smooth="yes"/>
      <point x="75" y="-69"/>
      <point x="54" y="-85"/>
      <point x="-15" y="-85" type="curve"/>
      <point x="-23" y="-147" type="line"/>
      <point x="36" y="-147" type="line" smooth="yes"/>
      <point x="142" y="-147"/>
      <point x="194" y="-74"/>
      <point x="207" y="23" type="curve" smooth="yes"/>
      <point x="228" y="176" type="line" smooth="yes"/>
      <point x="234" y="217"/>
      <point x="254" y="265"/>
      <point x="305" y="265" type="curve"/>
      <point x="313" y="326" type="line"/>
      <point x="267" y="326"/>
      <point x="255" y="370"/>
      <point x="260" y="409" type="curve" smooth="yes"/>
      <point x="282" y="568" type="line" smooth="yes"/>
      <point x="297" y="673"/>
      <point x="260" y="739"/>
    </contour>
  </outline>
</glyph>
<glyph name="exclamdown" format="2">
  <advance width="245"/>
  <unicode hex="00A1"/>
  <note>
exclamdown
</note>
  <outline>
    <contour>
      <point x="128" y="-234" type="line"/>
      <point x="171" y="279" type="line"/>
      <point x="81" y="279" type="line"/>
      <point x="-20" y="-234" type="line"/>
    </contour>
    <contour>
      <point x="72" y="425" type="curve" smooth="yes"/>
      <point x="72" y="389"/>
      <point x="100" y="362"/>
      <point x="137" y="362" type="curve" smooth="yes"/>
      <point x="180" y="362"/>
      <point x="223" y="402"/>
      <point x="223" y="446" type="curve" smooth="yes"/>
      <point x="223" y="482"/>
      <point x="195" y="510"/>
      <point x="158" y="510" type="curve" smooth="yes"/>
      <point x="113" y="510"/>
      <point x="72" y="471"/>
    </contour>
  </outline>
</glyph>
<glyph name="sterling" format="2">
  <advance width="581"/>
  <unicode hex="00A3"/>
  <note>
sterling
</note>
  <outline>
    <contour>
      <point x="13" y="100" type="line"/>
      <point x="-1" y="0" type="line"/>
      <point x="520" y="0" type="line"/>
      <point x="534" y="100" type="line"/>
      <point x="241" y="100" type="line"/>
      <point x="300" y="514" type="line" smooth="yes"/>
      <point x="307" y="568"/>
      <point x="341" y="610"/>
      <point x="398" y="610" type="curve" smooth="yes"/>
      <point x="444" y="610"/>
      <point x="472" y="575"/>
      <point x="487" y="537" type="curve"/>
      <point x="592" y="591" type="line"/>
      <point x="556" y="665"/>
      <point x="502" y="706"/>
      <point x="413" y="706" type="curve" smooth="yes"/>
      <point x="286" y="706"/>
      <point x="181" y="633"/>
      <point x="163" y="500" type="curve" smooth="yes"/>
      <point x="106" y="100" type="line"/>
    </contour>
    <contour>
      <point x="55" y="284" type="line"/>
      <point x="417" y="284" type="line"/>
      <point x="439" y="366" type="line"/>
      <point x="77" y="366" type="line"/>
    </contour>
  </outline>
</glyph>
<glyph name="currency" format="2">
  <advance width="537"/>
  <unicode hex="00A4"/>
  <note>
currency
</note>
  <outline>
    <contour>
      <point x="297" y="463" type="curve" smooth="yes"/>
      <point x="257" y="463"/>
      <point x="218" y="451"/>
      <point x="184" y="429" type="curve"/>
      <point x="139" y="482" type="line"/>
      <point x="60" y="413" type="line"/>
      <point x="108" y="356" type="line"/>
      <point x="82" y="315"/>
      <point x="67" y="268"/>
      <point x="67" y="220" type="curve" smooth="yes"/>
      <point x="67" y="194"/>
      <point x="71" y="170"/>
      <point x="79" y="148" type="curve"/>
      <point x="16" y="93" type="line"/>
      <point x="75" y="24" type="line"/>
      <point x="133" y="75" type="line"/>
      <point x="161" y="53"/>
      <point x="197" y="41"/>
      <point x="237" y="41" type="curve" smooth="yes"/>
      <point x="277" y="41"/>
      <point x="317" y="53"/>
      <point x="351" y="75" type="curve"/>
      <point x="396" y="24" type="line"/>
      <point x="475" y="93" type="line"/>
      <point x="425" y="149" type="line"/>
      <point x="451" y="186"/>
      <point x="468" y="232"/>
      <point x="468" y="281" type="curve" smooth="yes"/>
      <point x="468" y="307"/>
      <point x="463" y="333"/>
      <point x="454" y="356" type="curve"/>
      <point x="519" y="413" type="line"/>
      <point x="460" y="482" type="line"/>
      <point x="400" y="429" type="line"/>
      <point x="372" y="451"/>
      <point x="337" y="463"/>
    </contour>
    <contour>
      <point x="286" y="379" type="curve" smooth="yes"/>
      <point x="347" y="379"/>
      <point x="380" y="328"/>
      <point x="371" y="254" type="curve" smooth="yes"/>
      <point x="358" y="163"/>
      <point x="299" y="125"/>
      <point x="249" y="125" type="curve" smooth="yes"/>
      <point x="208" y="125"/>
      <point x="162" y="157"/>
      <point x="162" y="227" type="curve" smooth="yes"/>
      <point x="162" y="312"/>
      <point x="217" y="379"/>
    </contour>
  </outline>
</glyph>
<glyph name="section" format="2">
  <advance width="454"/>
  <unicode hex="00A7"/>
  <note>
section
</note>
  <outline>
    <contour>
      <point x="401" y="775" type="curve" smooth="yes"/>
      <point x="311" y="775"/>
      <point x="251" y="737"/>
      <point x="232" y="649" type="curve"/>
      <point x="118" y="638"/>
      <point x="87" y="553"/>
      <point x="87" y="449" type="curve" smooth="yes"/>
      <point x="87" y="337"/>
      <point x="126" y="110"/>
      <point x="126" y="-54" type="curve" smooth="yes"/>
      <point x="126" y="-96"/>
      <point x="116" y="-151"/>
      <point x="64" y="-151" type="curve" smooth="yes"/>
      <point x="45" y="-151"/>
      <point x="16" y="-141"/>
      <point x="-2" y="-134" type="curve"/>
      <point x="-34" y="-209" type="line"/>
      <point x="-2" y="-225"/>
      <point x="25" y="-230"/>
      <point x="61" y="-230" type="curve" smooth="yes"/>
      <point x="144" y="-230"/>
      <point x="215" y="-190"/>
      <point x="230" y="-103" type="curve"/>
      <point x="321" y="-91"/>
      <point x="371" y="-33"/>
      <point x="371" y="60" type="curve" smooth="yes"/>
      <point x="371" y="219"/>
      <point x="330" y="486"/>
      <point x="330" y="578" type="curve" smooth="yes"/>
      <point x="330" y="624"/>
      <point x="336" y="694"/>
      <point x="397" y="694" type="curve" smooth="yes"/>
      <point x="423" y="694"/>
      <point x="458" y="681"/>
      <point x="468" y="676" type="curve"/>
      <point x="497" y="754" type="line"/>
      <point x="467" y="765"/>
      <point x="435" y="775"/>
    </contour>
    <contour>
      <point x="225" y="559" type="curve"/>
      <point x="231" y="396"/>
      <point x="264" y="234"/>
      <point x="264" y="71" type="curve" smooth="yes"/>
      <point x="264" y="42"/>
      <point x="260" y="0"/>
      <point x="232" y="-18" type="curve"/>
      <point x="227" y="116"/>
      <point x="192" y="367"/>
      <point x="192" y="453" type="curve" smooth="yes"/>
      <point x="192" y="487"/>
      <point x="195" y="537"/>
    </contour>
  </outline>
</glyph>
<glyph name="dieresis" format="2">
  <advance width="297"/>
  <unicode hex="00A8"/>
  <note>
dieresis
</note>
  <anchor x="184" y="497" name="_top"/>
  <outline>
    <contour>
      <point x="184" y="661" type="curve" smooth="yes"/>
      <point x="184" y="692"/>
      <point x="161" y="715"/>
      <point x="129" y="715" type="curve" smooth="yes"/>
      <point x="91" y="715"/>
      <point x="56" y="682"/>
      <point x="56" y="643" type="curve" smooth="yes"/>
      <point x="56" y="612"/>
      <point x="79" y="589"/>
      <point x="111" y="589" type="curve" smooth="yes"/>
      <point x="149" y="589"/>
      <point x="184" y="622"/>
    </contour>
    <contour>
      <point x="355" y="661" type="curve" smooth="yes"/>
      <point x="355" y="692"/>
      <point x="331" y="715"/>
      <point x="299" y="715" type="curve" smooth="yes"/>
      <point x="262" y="715"/>
      <point x="226" y="681"/>
      <point x="226" y="643" type="curve" smooth="yes"/>
      <point x="226" y="613"/>
      <point x="250" y="589"/>
      <point x="281" y="589" type="curve" smooth="yes"/>
      <point x="319" y="589"/>
      <point x="355" y="622"/>
    </contour>
  </outline>
</glyph>
<glyph name="macron" format="2">
  <advance width="295"/>
  <unicode hex="00AF"/>
  <note>
macron
</note>
  <anchor x="183" y="497" name="_top"/>
  <outline>
    <contour>
      <point x="62" y="689" type="line"/>
      <point x="52" y="615" type="line"/>
      <point x="347" y="615" type="line"/>
      <point x="357" y="689" type="line"/>
    </contour>
  </outline>
</glyph>
<glyph name="twosuperior" format="2">
  <advance width="455"/>
  <unicode hex="00B2"/>
  <note>
uni00B2
</note>
  <outline>
    <contour>
      <point x="84" y="489" type="curve"/>
      <point x="84" y="438" type="line"/>
      <point x="410" y="438" type="line"/>
      <point x="448" y="533" type="line"/>
      <point x="242" y="533" type="line"/>
      <point x="378" y="623"/>
      <point x="468" y="728"/>
      <point x="468" y="823" type="curve" smooth="yes"/>
      <point x="468" y="885"/>
      <point x="427" y="935"/>
      <point x="333" y="935" type="curve" smooth="yes"/>
      <point x="224" y="935"/>
      <point x="144" y="864"/>
      <point x="144" y="864" type="curve"/>
      <point x="177" y="798" type="line"/>
      <point x="177" y="798"/>
      <point x="246" y="856"/>
      <point x="303" y="856" type="curve" smooth="yes"/>
      <point x="334" y="856"/>
      <point x="355" y="836"/>
      <point x="355" y="805" type="curve" smooth="yes"/>
      <point x="355" y="691"/>
      <point x="84" y="489"/>
    </contour>
  </outline>
</glyph>
<glyph name="threesuperior" format="2">
  <advance width="455"/>
  <unicode hex="00B3"/>
  <note>
uni00B3
</note>
  <outline>
    <contour>
      <point x="92" y="494" type="curve"/>
      <point x="97" y="425" type="line"/>
      <point x="407" y="437"/>
      <point x="450" y="583"/>
      <point x="450" y="642" type="curve" smooth="yes"/>
      <point x="450" y="698"/>
      <point x="415" y="728"/>
      <point x="362" y="738" type="curve"/>
      <point x="417" y="757"/>
      <point x="458" y="796"/>
      <point x="458" y="854" type="curve" smooth="yes"/>
      <point x="458" y="917"/>
      <point x="394" y="935"/>
      <point x="334" y="935" type="curve" smooth="yes"/>
      <point x="273" y="935"/>
      <point x="196" y="905"/>
      <point x="146" y="867" type="curve"/>
      <point x="179" y="806" type="line"/>
      <point x="213" y="832"/>
      <point x="266" y="856"/>
      <point x="309" y="856" type="curve" smooth="yes"/>
      <point x="332" y="856"/>
      <point x="351" y="845"/>
      <point x="351" y="825" type="curve" smooth="yes"/>
      <point x="351" y="761"/>
      <point x="263" y="738"/>
      <point x="213" y="728" type="curve"/>
      <point x="216" y="670" type="line"/>
      <point x="216" y="670"/>
      <point x="230" y="672"/>
      <point x="249" y="672" type="curve" smooth="yes"/>
      <point x="285" y="672"/>
      <point x="340" y="668"/>
      <point x="340" y="621" type="curve" smooth="yes"/>
      <point x="340" y="552"/>
      <point x="249" y="502"/>
    </contour>
  </outline>
</glyph>
<glyph name="paragraph" format="2">
  <advance width="521"/>
  <unicode hex="00B6"/>
  <note>
paragraph
</note>
  <outline>
    <contour>
      <point x="124" y="-108" type="curve"/>
      <point x="107" y="-154" type="line"/>
      <point x="120" y="-158"/>
      <point x="133" y="-160"/>
      <point x="147" y="-160" type="curve" smooth="yes"/>
      <point x="193" y="-160"/>
      <point x="239" y="-137"/>
      <point x="259" y="-99" type="curve"/>
      <point x="265" y="-100"/>
      <point x="271" y="-100"/>
      <point x="276" y="-100" type="curve" smooth="yes"/>
      <point x="334" y="-100"/>
      <point x="378" y="-51"/>
      <point x="386" y="10" type="curve" smooth="yes"/>
      <point x="476" y="649" type="line"/>
      <point x="532" y="649" type="line"/>
      <point x="542" y="718" type="line"/>
      <point x="330" y="718" type="line" smooth="yes"/>
      <point x="162" y="718"/>
      <point x="69" y="599"/>
      <point x="69" y="432" type="curve" smooth="yes"/>
      <point x="69" y="315"/>
      <point x="140" y="252"/>
      <point x="250" y="252" type="curve"/>
      <point x="210" y="-37" type="line" smooth="yes"/>
      <point x="205" y="-75"/>
      <point x="177" y="-109"/>
      <point x="137" y="-109" type="curve" smooth="yes"/>
      <point x="133" y="-109"/>
      <point x="129" y="-109"/>
    </contour>
    <contour>
      <point x="371" y="649" type="line"/>
      <point x="412" y="649" type="line"/>
      <point x="324" y="20" type="line" smooth="yes"/>
      <point x="319" y="-10"/>
      <point x="313" y="-37"/>
      <point x="275" y="-37" type="curve"/>
    </contour>
  </outline>
</glyph>
<glyph name="periodcentered" format="2">
  <advance width="293"/>
  <unicode hex="00B7"/>
  <note>
periodcentered
</note>
  <outline>
    <contour>
      <point x="223" y="269" type="curve" smooth="yes"/>
      <point x="223" y="305"/>
      <point x="195" y="333"/>
      <point x="157" y="333" type="curve" smooth="yes"/>
      <point x="113" y="333"/>
      <point x="70" y="293"/>
      <point x="70" y="246" type="curve" smooth="yes"/>
      <point x="70" y="210"/>
      <point x="98" y="182"/>
      <point x="136" y="182" type="curve" smooth="yes"/>
      <point x="180" y="182"/>
      <point x="223" y="222"/>
    </contour>
  </outline>
</glyph>
<glyph name="cedilla" format="2">
  <advance width="222"/>
  <unicode hex="00B8"/>
  <note>
cedilla
</note>
  <anchor x="78" y="0" name="_bottom"/>
  <outline>
    <contour>
      <point x="142" y="-112" type="curve" smooth="yes"/>
      <point x="142" y="-74"/>
      <point x="114" y="-53"/>
      <point x="92" y="-42" type="curve"/>
      <point x="128" y="13" type="line"/>
      <point x="52" y="13" type="line"/>
      <point x="-13" y="-82" type="line"/>
      <point x="21" y="-92"/>
      <point x="44" y="-101"/>
      <point x="44" y="-118" type="curve" smooth="yes"/>
      <point x="44" y="-151"/>
      <point x="-7" y="-154"/>
      <point x="-32" y="-158" type="curve"/>
      <point x="-16" y="-220" type="line"/>
      <point x="61" y="-209"/>
      <point x="142" y="-185"/>
    </contour>
  </outline>
</glyph>
<glyph name="onesuperior" format="2">
  <advance width="455"/>
  <unicode hex="00B9"/>
  <note>
uni00B9
</note>
  <outline>
    <contour>
      <point x="101" y="517" type="line"/>
      <point x="91" y="438" type="line"/>
      <point x="428" y="438" type="line"/>
      <point x="438" y="517" type="line"/>
      <point x="336" y="517" type="line"/>
      <point x="389" y="924" type="line"/>
      <point x="308" y="924" type="line"/>
      <point x="129" y="855" type="line"/>
      <point x="144" y="785" type="line"/>
      <point x="268" y="820" type="line"/>
      <point x="228" y="517" type="line"/>
    </contour>
  </outline>
</glyph>
<glyph name="onequarter" format="2">
  <advance width="1082"/>
  <unicode hex="00BC"/>
  <note>
onequarter
</note>
  <outline>
    <contour>
      <point x="747" y="732" type="line"/>
      <point x="274" y="0" type="line"/>
      <point x="367" y="0" type="line"/>
      <point x="841" y="732" type="line"/>
    </contour>
    <contour>
      <point x="74" y="327" type="line"/>
      <point x="64" y="248" type="line"/>
      <point x="401" y="248" type="line"/>
      <point x="411" y="327" type="line"/>
      <point x="309" y="327" type="line"/>
      <point x="362" y="734" type="line"/>
      <point x="281" y="734" type="line"/>
      <point x="102" y="665" type="line"/>
      <point x="117" y="595" type="line"/>
      <point x="241" y="630" type="line"/>
      <point x="201" y="327" type="line"/>
    </contour>
    <contour>
      <point x="853" y="101" type="line"/>
      <point x="837" y="0" type="line"/>
      <point x="951" y="0" type="line"/>
      <point x="967" y="101" type="line"/>
      <point x="1014" y="101" type="line"/>
      <point x="1051" y="180" type="line"/>
      <point x="979" y="180" type="line"/>
      <point x="1027" y="486" type="line"/>
      <point x="914" y="486" type="line"/>
      <point x="636" y="153" type="line"/>
      <point x="628" y="101" type="line"/>
    </contour>
    <contour>
      <point x="901" y="356" type="line"/>
      <point x="865" y="180" type="line"/>
      <point x="755" y="180" type="line"/>
    </contour>
  </outline>
</glyph>
<glyph name="onehalf" format="2">
  <advance width="1082"/>
  <unicode hex="00BD"/>
  <note>
onehalf
</note>
  <outline>
    <contour>
      <point x="747" y="732" type="line"/>
      <point x="274" y="0" type="line"/>
      <point x="367" y="0" type="line"/>
      <point x="841" y="732" type="line"/>
    </contour>
    <contour>
      <point x="74" y="327" type="line"/>
      <point x="64" y="248" type="line"/>
      <point x="401" y="248" type="line"/>
      <point x="411" y="327" type="line"/>
      <point x="309" y="327" type="line"/>
      <point x="362" y="734" type="line"/>
      <point x="281" y="734" type="line"/>
      <point x="102" y="665" type="line"/>
      <point x="117" y="595" type="line"/>
      <point x="241" y="630" type="line"/>
      <point x="201" y="327" type="line"/>
    </contour>
    <contour>
      <point x="649" y="51" type="curve"/>
      <point x="649" y="0" type="line"/>
      <point x="975" y="0" type="line"/>
      <point x="1013" y="95" type="line"/>
      <point x="807" y="95" type="line"/>
      <point x="943" y="185"/>
      <point x="1033" y="290"/>
      <point x="1033" y="385" type="curve" smooth="yes"/>
      <point x="1033" y="447"/>
      <point x="992" y="497"/>
      <point x="898" y="497" type="curve" smooth="yes"/>
      <point x="789" y="497"/>
      <point x="709" y="426"/>
      <point x="709" y="426" type="curve"/>
      <point x="742" y="360" type="line"/>
      <point x="742" y="360"/>
      <point x="811" y="418"/>
      <point x="868" y="418" type="curve" smooth="yes"/>
      <point x="899" y="418"/>
      <point x="920" y="398"/>
      <point x="920" y="367" type="curve" smooth="yes"/>
      <point x="920" y="253"/>
      <point x="649" y="51"/>
    </contour>
  </outline>
</glyph>
<glyph name="threequarters" format="2">
  <advance width="1082"/>
  <unicode hex="00BE"/>
  <note>
threequarters
</note>
  <outline>
    <contour>
      <point x="747" y="732" type="line"/>
      <point x="274" y="0" type="line"/>
      <point x="367" y="0" type="line"/>
      <point x="841" y="732" type="line"/>
    </contour>
    <contour>
      <point x="65" y="304" type="curve"/>
      <point x="70" y="235" type="line"/>
      <point x="380" y="247"/>
      <point x="423" y="393"/>
      <point x="423" y="452" type="curve" smooth="yes"/>
      <point x="423" y="508"/>
      <point x="388" y="538"/>
      <point x="335" y="548" type="curve"/>
      <point x="390" y="567"/>
      <point x="431" y="606"/>
      <point x="431" y="664" type="curve" smooth="yes"/>
      <point x="431" y="727"/>
      <point x="367" y="745"/>
      <point x="307" y="745" type="curve" smooth="yes"/>
      <point x="246" y="745"/>
      <point x="169" y="715"/>
      <point x="119" y="677" type="curve"/>
      <point x="152" y="616" type="line"/>
      <point x="186" y="642"/>
      <point x="239" y="666"/>
      <point x="282" y="666" type="curve" smooth="yes"/>
      <point x="305" y="666"/>
      <point x="324" y="655"/>
      <point x="324" y="635" type="curve" smooth="yes"/>
      <point x="324" y="571"/>
      <point x="236" y="548"/>
      <point x="186" y="538" type="curve"/>
      <point x="189" y="480" type="line"/>
      <point x="189" y="480"/>
      <point x="203" y="482"/>
      <point x="222" y="482" type="curve" smooth="yes"/>
      <point x="258" y="482"/>
      <point x="313" y="478"/>
      <point x="313" y="431" type="curve" smooth="yes"/>
      <point x="313" y="362"/>
      <point x="222" y="312"/>
    </contour>
    <contour>
      <point x="853" y="101" type="line"/>
      <point x="837" y="0" type="line"/>
      <point x="951" y="0" type="line"/>
      <point x="967" y="101" type="line"/>
      <point x="1014" y="101" type="line"/>
      <point x="1051" y="180" type="line"/>
      <point x="979" y="180" type="line"/>
      <point x="1027" y="486" type="line"/>
      <point x="914" y="486" type="line"/>
      <point x="636" y="153" type="line"/>
      <point x="628" y="101" type="line"/>
    </contour>
    <contour>
      <point x="901" y="356" type="line"/>
      <point x="865" y="180" type="line"/>
      <point x="755" y="180" type="line"/>
    </contour>
  </outline>
</glyph>
<glyph name="divide" format="2">
  <advance width="630"/>
  <unicode hex="00F7"/>
  <note>
divide
</note>
  <outline>
    <contour>
      <point x="419" y="442" type="curve" smooth="yes"/>
      <point x="419" y="480"/>
      <point x="391" y="509"/>
      <point x="352" y="509" type="curve" smooth="yes"/>
      <point x="305" y="509"/>
      <point x="263" y="468"/>
      <point x="263" y="420" type="curve" smooth="yes"/>
      <point x="263" y="383"/>
      <point x="291" y="354"/>
      <point x="330" y="354" type="curve" smooth="yes"/>
      <point x="377" y="354"/>
      <point x="419" y="395"/>
    </contour>
    <contour>
      <point x="72" y="292" type="line"/>
      <point x="60" y="204" type="line"/>
      <point x="558" y="204" type="line"/>
      <point x="570" y="292" type="line"/>
    </contour>
    <contour>
      <point x="368" y="77" type="curve" smooth="yes"/>
      <point x="368" y="114"/>
      <point x="339" y="143"/>
      <point x="301" y="143" type="curve" smooth="yes"/>
      <point x="254" y="143"/>
      <point x="211" y="102"/>
      <point x="211" y="55" type="curve" smooth="yes"/>
      <point x="211" y="17"/>
      <point x="240" y="-12"/>
      <point x="279" y="-12" type="curve" smooth="yes"/>
      <point x="324" y="-12"/>
      <point x="368" y="29"/>
    </contour>
  </outline>
</glyph>
<glyph name="idotless" format="2">
  <advance width="228"/>
  <unicode hex="0131"/>
  <note>
dotlessi
</note>
  <anchor x="88" y="0" name="bottom"/>
  <anchor x="147" y="497" name="top"/>
  <outline>
    <contour>
      <point x="151" y="0" type="line"/>
      <point x="148" y="55" type="line"/>
      <point x="207" y="497" type="line"/>
      <point x="83" y="497" type="line"/>
      <point x="86" y="443" type="line"/>
      <point x="27" y="0" type="line"/>
    </contour>
  </outline>
</glyph>
<glyph name="kgreenlandic" format="2">
  <advance width="486"/>
  <unicode hex="0138"/>
  <outline>
    <contour>
      <point x="349" y="511" type="curve" smooth="yes"/>
      <point x="293" y="511"/>
      <point x="227" y="484"/>
      <point x="176" y="401" type="curve"/>
      <point x="176" y="320" type="line"/>
      <point x="211" y="387"/>
      <point x="266" y="414"/>
      <point x="304" y="414" type="curve" smooth="yes"/>
      <point x="330" y="414"/>
      <point x="349" y="401"/>
      <point x="349" y="372" type="curve" smooth="yes"/>
      <point x="349" y="328"/>
      <point x="297" y="262"/>
      <point x="198" y="235" type="curve"/>
      <point x="224" y="157"/>
      <point x="263" y="73"/>
      <point x="304" y="0" type="curve"/>
      <point x="436" y="0" type="line"/>
      <point x="388" y="72"/>
      <point x="348" y="140"/>
      <point x="324" y="208" type="curve"/>
      <point x="426" y="260"/>
      <point x="465" y="337"/>
      <point x="465" y="404" type="curve" smooth="yes"/>
      <point x="465" y="476"/>
      <point x="414" y="511"/>
    </contour>
    <contour>
      <point x="210" y="497" type="line"/>
      <point x="93" y="497" type="line"/>
      <point x="27" y="0" type="line"/>
      <point x="143" y="0" type="line"/>
    </contour>
  </outline>
</glyph>
<glyph name="lcaron" format="2">
  <advance width="326"/>
  <unicode hex="013E"/>
  <outline>
    <contour>
      <point x="247" y="769" type="line"/>
      <point x="119" y="769" type="line"/>
      <point x="122" y="715" type="line"/>
      <point x="27" y="0" type="line"/>
      <point x="154" y="0" type="line"/>
      <point x="151" y="54" type="line"/>
    </contour>
    <contour>
      <point x="294" y="767" type="line"/>
      <point x="260" y="602" type="line"/>
      <point x="358" y="602" type="line"/>
      <point x="429" y="767" type="line"/>
    </contour>
  </outline>
</glyph>
<glyph name="ldot" format="2">
  <advance width="356"/>
  <unicode hex="0140"/>
  <outline>
    <contour>
      <point x="247" y="769" type="line"/>
      <point x="119" y="769" type="line"/>
      <point x="122" y="715" type="line"/>
      <point x="27" y="0" type="line"/>
      <point x="154" y="0" type="line"/>
      <point x="151" y="54" type="line"/>
    </contour>
    <contour>
      <point x="382" y="319" type="curve" smooth="yes"/>
      <point x="382" y="355"/>
      <point x="354" y="383"/>
      <point x="316" y="383" type="curve" smooth="yes"/>
      <point x="272" y="383"/>
      <point x="229" y="343"/>
      <point x="229" y="296" type="curve" smooth="yes"/>
      <point x="229" y="260"/>
      <point x="257" y="232"/>
      <point x="295" y="232" type="curve" smooth="yes"/>
      <point x="339" y="232"/>
      <point x="382" y="272"/>
    </contour>
  </outline>
</glyph>
<glyph name="OE" format="2">
  <advance width="993"/>
  <unicode hex="0152"/>
  <note>
OE
</note>
  <outline>
    <contour>
      <point x="506" y="68" type="curve"/>
      <point x="497" y="0" type="line"/>
      <point x="920" y="0" type="line"/>
      <point x="933" y="99" type="line"/>
      <point x="641" y="99" type="line"/>
      <point x="671" y="327" type="line"/>
      <point x="895" y="327" type="line"/>
      <point x="908" y="426" type="line"/>
      <point x="684" y="426" type="line"/>
      <point x="712" y="633" type="line"/>
      <point x="1005" y="633" type="line"/>
      <point x="1018" y="732" type="line"/>
      <point x="595" y="732" type="line"/>
      <point x="586" y="667" type="line"/>
      <point x="537" y="720"/>
      <point x="479" y="743"/>
      <point x="401" y="743" type="curve" smooth="yes"/>
      <point x="154" y="743"/>
      <point x="17" y="523"/>
      <point x="17" y="295" type="curve" smooth="yes"/>
      <point x="17" y="117"/>
      <point x="113" y="-11"/>
      <point x="300" y="-11" type="curve" smooth="yes"/>
      <point x="379" y="-11"/>
      <point x="442" y="7"/>
    </contour>
    <contour>
      <point x="316" y="84" type="curve" smooth="yes"/>
      <point x="192" y="84"/>
      <point x="157" y="193"/>
      <point x="157" y="298" type="curve" smooth="yes"/>
      <point x="157" y="439"/>
      <point x="216" y="648"/>
      <point x="390" y="648" type="curve" smooth="yes"/>
      <point x="514" y="648"/>
      <point x="549" y="540"/>
      <point x="549" y="434" type="curve" smooth="yes"/>
      <point x="549" y="293"/>
      <point x="491" y="84"/>
    </contour>
  </outline>
</glyph>
<glyph name="jdotless" format="2">
  <advance width="228"/>
  <unicode hex="0237"/>
  <anchor x="147" y="497" name="top"/>
  <outline>
    <contour>
      <point x="209" y="497" type="line"/>
      <point x="83" y="497" type="line"/>
      <point x="87" y="444" type="line"/>
      <point x="32" y="39" type="line" smooth="yes"/>
      <point x="22" y="-37"/>
      <point x="1" y="-128"/>
      <point x="-81" y="-169" type="curve"/>
      <point x="-67" y="-224" type="line"/>
      <point x="91" y="-206"/>
      <point x="132" y="-64"/>
      <point x="150" y="65" type="curve" smooth="yes"/>
    </contour>
  </outline>
</glyph>
<glyph name="apostrophemod" format="2">
  <advance width="286"/>
  <unicode hex="02BC"/>
  <anchor x="229" y="497" name="_topright"/>
  <outline>
    <contour>
      <point x="222" y="772" type="curve" smooth="yes"/>
      <point x="189" y="772"/>
      <point x="161" y="746"/>
      <point x="157" y="714" type="curve" smooth="yes"/>
      <point x="150" y="668"/>
      <point x="189" y="661"/>
      <point x="186" y="640" type="curve" smooth="yes"/>
      <point x="184" y="622"/>
      <point x="154" y="591"/>
      <point x="139" y="579" type="curve"/>
      <point x="147" y="567"/>
      <point x="157" y="556"/>
      <point x="167" y="545" type="curve"/>
      <point x="219" y="580"/>
      <point x="270" y="632"/>
      <point x="279" y="695" type="curve" smooth="yes"/>
      <point x="285" y="735"/>
      <point x="265" y="772"/>
    </contour>
  </outline>
</glyph>
<glyph name="caron" format="2">
  <advance width="293"/>
  <unicode hex="02C7"/>
  <note>
caron
</note>
  <anchor x="180" y="497" name="_top"/>
  <outline>
    <contour>
      <point x="205" y="660" type="line"/>
      <point x="155" y="724" type="line"/>
      <point x="67" y="724" type="line"/>
      <point x="146" y="579" type="line"/>
      <point x="244" y="579" type="line"/>
      <point x="360" y="724" type="line"/>
      <point x="274" y="724" type="line"/>
    </contour>
  </outline>
</glyph>
<glyph name="dotaccent" format="2">
  <advance width="297"/>
  <unicode hex="02D9"/>
  <note>
dotaccent
</note>
  <anchor x="184" y="497" name="_top"/>
  <outline>
    <contour>
      <point x="270" y="661" type="curve" smooth="yes"/>
      <point x="270" y="692"/>
      <point x="246" y="715"/>
      <point x="214" y="715" type="curve" smooth="yes"/>
      <point x="177" y="715"/>
      <point x="141" y="681"/>
      <point x="141" y="643" type="curve" smooth="yes"/>
      <point x="141" y="613"/>
      <point x="165" y="589"/>
      <point x="196" y="589" type="curve" smooth="yes"/>
      <point x="234" y="589"/>
      <point x="270" y="622"/>
    </contour>
  </outline>
</glyph>
<glyph name="ring" format="2">
  <advance width="283"/>
  <unicode hex="02DA"/>
  <note>
ring
</note>
  <anchor x="176" y="497" name="_top"/>
  <outline>
    <contour>
      <point x="212" y="769" type="curve" smooth="yes"/>
      <point x="148" y="769"/>
      <point x="91" y="714"/>
      <point x="91" y="649" type="curve" smooth="yes"/>
      <point x="91" y="597"/>
      <point x="132" y="555"/>
      <point x="186" y="555" type="curve" smooth="yes"/>
      <point x="250" y="555"/>
      <point x="308" y="609"/>
      <point x="308" y="674" type="curve" smooth="yes"/>
      <point x="308" y="726"/>
      <point x="266" y="769"/>
    </contour>
    <contour>
      <point x="203" y="702" type="curve" smooth="yes"/>
      <point x="224" y="702"/>
      <point x="239" y="686"/>
      <point x="239" y="666" type="curve" smooth="yes"/>
      <point x="239" y="640"/>
      <point x="218" y="621"/>
      <point x="193" y="621" type="curve" smooth="yes"/>
      <point x="172" y="621"/>
      <point x="158" y="636"/>
      <point x="158" y="656" type="curve" smooth="yes"/>
      <point x="158" y="682"/>
      <point x="178" y="702"/>
    </contour>
  </outline>
</glyph>
<glyph name="hungarumlaut" format="2">
  <advance width="381"/>
  <unicode hex="02DD"/>
  <note>
hungarumlaut
</note>
  <anchor x="172" y="497" name="_top"/>
  <outline>
    <contour>
      <point x="148" y="735" type="line"/>
      <point x="55" y="570" type="line"/>
      <point x="148" y="570" type="line"/>
      <point x="283" y="735" type="line"/>
    </contour>
    <contour>
      <point x="305" y="735" type="line"/>
      <point x="212" y="570" type="line"/>
      <point x="305" y="570" type="line"/>
      <point x="440" y="735" type="line"/>
    </contour>
  </outline>
</glyph>
<glyph name="slashlongcomb" format="2">
  <unicode hex="0338"/>
  <anchor x="260" y="244" name="_center"/>
  <outline>
    <contour>
      <point x="52" y="-91" type="line"/>
      <point x="535" y="545" type="line"/>
      <point x="476" y="589" type="line"/>
      <point x="-5" y="-47" type="line"/>
    </contour>
  </outline>
</glyph>
<glyph name="Germandbls" format="2">
  <advance width="678"/>
  <unicode hex="1E9E"/>
  <outline>
    <contour>
      <point x="285" y="328" type="line"/>
      <point x="410" y="339" type="line"/>
      <point x="652" y="652" type="line"/>
      <point x="587" y="732" type="line"/>
    </contour>
    <contour>
      <point x="413" y="426" type="curve"/>
      <point x="285" y="328" type="line"/>
      <point x="301" y="330"/>
      <point x="317" y="330"/>
      <point x="331" y="330" type="curve" smooth="yes"/>
      <point x="463" y="330"/>
      <point x="500" y="270"/>
      <point x="500" y="211" type="curve" smooth="yes"/>
      <point x="500" y="145"/>
      <point x="458" y="85"/>
      <point x="386" y="85" type="curve" smooth="yes"/>
      <point x="340" y="85"/>
      <point x="290" y="109"/>
      <point x="255" y="157" type="curve"/>
      <point x="192" y="46" type="line"/>
      <point x="248" y="4"/>
      <point x="312" y="-15"/>
      <point x="375" y="-15" type="curve" smooth="yes"/>
      <point x="526" y="-15"/>
      <point x="650" y="98"/>
      <point x="650" y="243" type="curve" smooth="yes"/>
      <point x="650" y="368"/>
      <point x="522" y="424"/>
    </contour>
    <contour>
      <point x="111" y="732" type="line"/>
      <point x="117" y="671" type="line"/>
      <point x="27" y="0" type="line"/>
      <point x="158" y="0" type="line"/>
      <point x="243" y="633" type="line"/>
      <point x="574" y="633" type="line"/>
      <point x="587" y="732" type="line"/>
    </contour>
  </outline>
</glyph>
<glyph name="quotedblleft" format="2">
  <advance width="429"/>
  <unicode hex="201C"/>
  <note>
quotedblleft
</note>
  <outline>
    <contour>
      <point x="171" y="738" type="line"/>
      <point x="108" y="697"/>
      <point x="30" y="624"/>
      <point x="30" y="544" type="curve" smooth="yes"/>
      <point x="30" y="501"/>
      <point x="62" y="467"/>
      <point x="107" y="467" type="curve" smooth="yes"/>
      <point x="148" y="467"/>
      <point x="186" y="500"/>
      <point x="186" y="546" type="curve" smooth="yes"/>
      <point x="186" y="591"/>
      <point x="150" y="603"/>
      <point x="150" y="621" type="curve" smooth="yes"/>
      <point x="150" y="645"/>
      <point x="188" y="684"/>
      <point x="206" y="698" type="curve"/>
    </contour>
    <contour>
      <point x="361" y="738" type="line"/>
      <point x="298" y="697"/>
      <point x="220" y="624"/>
      <point x="220" y="544" type="curve" smooth="yes"/>
      <point x="220" y="501"/>
      <point x="252" y="467"/>
      <point x="297" y="467" type="curve" smooth="yes"/>
      <point x="338" y="467"/>
      <point x="376" y="500"/>
      <point x="376" y="546" type="curve" smooth="yes"/>
      <point x="376" y="591"/>
      <point x="340" y="603"/>
      <point x="340" y="621" type="curve" smooth="yes"/>
      <point x="340" y="645"/>
      <point x="378" y="684"/>
      <point x="396" y="698" type="curve"/>
    </contour>
  </outline>
</glyph>
<glyph name="quotedblright" format="2">
  <advance width="432"/>
  <unicode hex="201D"/>
  <note>
quotedblright
</note>
  <outline>
    <contour>
      <point x="209" y="661" type="curve" smooth="yes"/>
      <point x="209" y="704"/>
      <point x="178" y="738"/>
      <point x="132" y="738" type="curve" smooth="yes"/>
      <point x="91" y="738"/>
      <point x="53" y="704"/>
      <point x="53" y="659" type="curve" smooth="yes"/>
      <point x="53" y="614"/>
      <point x="89" y="602"/>
      <point x="89" y="584" type="curve" smooth="yes"/>
      <point x="89" y="560"/>
      <point x="51" y="521"/>
      <point x="33" y="506" type="curve"/>
      <point x="68" y="467" type="line"/>
      <point x="131" y="508"/>
      <point x="209" y="580"/>
    </contour>
    <contour>
      <point x="399" y="661" type="curve" smooth="yes"/>
      <point x="399" y="704"/>
      <point x="368" y="738"/>
      <point x="322" y="738" type="curve" smooth="yes"/>
      <point x="281" y="738"/>
      <point x="243" y="704"/>
      <point x="243" y="659" type="curve" smooth="yes"/>
      <point x="243" y="614"/>
      <point x="279" y="602"/>
      <point x="279" y="584" type="curve" smooth="yes"/>
      <point x="279" y="560"/>
      <point x="241" y="521"/>
      <point x="223" y="506" type="curve"/>
      <point x="258" y="467" type="line"/>
      <point x="321" y="508"/>
      <point x="399" y="580"/>
    </contour>
  </outline>
</glyph>
<glyph name="bullet" format="2">
  <advance width="441"/>
  <unicode hex="2022"/>
  <note>
bullet
</note>
  <outline>
    <contour>
      <point x="393" y="379" type="curve" smooth="yes"/>
      <point x="393" y="455"/>
      <point x="336" y="513"/>
      <point x="257" y="513" type="curve" smooth="yes"/>
      <point x="164" y="513"/>
      <point x="77" y="431"/>
      <point x="77" y="335" type="curve" smooth="yes"/>
      <point x="77" y="259"/>
      <point x="134" y="201"/>
      <point x="214" y="201" type="curve" smooth="yes"/>
      <point x="308" y="201"/>
      <point x="393" y="282"/>
    </contour>
  </outline>
</glyph>
<glyph name="perthousand" format="2">
  <advance width="1420"/>
  <unicode hex="2030"/>
  <note>
perthousand
</note>
  <outline>
    <contour>
      <point x="697" y="732" type="line"/>
      <point x="223" y="0" type="line"/>
      <point x="316" y="0" type="line"/>
      <point x="791" y="732" type="line"/>
    </contour>
    <contour>
      <point x="303" y="732" type="curve" smooth="yes"/>
      <point x="170" y="732"/>
      <point x="87" y="617"/>
      <point x="87" y="476" type="curve" smooth="yes"/>
      <point x="87" y="379"/>
      <point x="135" y="308"/>
      <point x="236" y="308" type="curve" smooth="yes"/>
      <point x="369" y="308"/>
      <point x="451" y="429"/>
      <point x="451" y="572" type="curve" smooth="yes"/>
      <point x="451" y="667"/>
      <point x="405" y="732"/>
    </contour>
    <contour>
      <point x="289" y="658" type="curve" smooth="yes"/>
      <point x="342" y="658"/>
      <point x="356" y="615"/>
      <point x="356" y="568" type="curve" smooth="yes"/>
      <point x="356" y="473"/>
      <point x="325" y="382"/>
      <point x="250" y="382" type="curve" smooth="yes"/>
      <point x="195" y="382"/>
      <point x="181" y="425"/>
      <point x="181" y="472" type="curve" smooth="yes"/>
      <point x="181" y="561"/>
      <point x="216" y="658"/>
    </contour>
    <contour>
      <point x="786" y="414" type="curve" smooth="yes"/>
      <point x="652" y="414"/>
      <point x="571" y="299"/>
      <point x="571" y="156" type="curve" smooth="yes"/>
      <point x="571" y="60"/>
      <point x="619" y="-10"/>
      <point x="719" y="-10" type="curve" smooth="yes"/>
      <point x="852" y="-10"/>
      <point x="935" y="113"/>
      <point x="935" y="252" type="curve" smooth="yes"/>
      <point x="935" y="348"/>
      <point x="888" y="414"/>
    </contour>
    <contour>
      <point x="772" y="340" type="curve" smooth="yes"/>
      <point x="826" y="340"/>
      <point x="839" y="295"/>
      <point x="839" y="248" type="curve" smooth="yes"/>
      <point x="839" y="154"/>
      <point x="809" y="64"/>
      <point x="733" y="64" type="curve" smooth="yes"/>
      <point x="679" y="64"/>
      <point x="665" y="105"/>
      <point x="665" y="152" type="curve" smooth="yes"/>
      <point x="665" y="244"/>
      <point x="698" y="340"/>
    </contour>
    <contour>
      <point x="303" y="732" type="line"/>
      <point x="289" y="658" type="line"/>
      <point x="693" y="658" type="line"/>
      <point x="703" y="732" type="line"/>
    </contour>
    <contour>
      <point x="1217" y="414" type="curve" smooth="yes"/>
      <point x="1083" y="414"/>
      <point x="1002" y="299"/>
      <point x="1002" y="156" type="curve" smooth="yes"/>
      <point x="1002" y="60"/>
      <point x="1050" y="-10"/>
      <point x="1150" y="-10" type="curve" smooth="yes"/>
      <point x="1283" y="-10"/>
      <point x="1366" y="113"/>
      <point x="1366" y="252" type="curve" smooth="yes"/>
      <point x="1366" y="348"/>
      <point x="1319" y="414"/>
    </contour>
    <contour>
      <point x="1203" y="340" type="curve" smooth="yes"/>
      <point x="1257" y="340"/>
      <point x="1270" y="295"/>
      <point x="1270" y="248" type="curve" smooth="yes"/>
      <point x="1270" y="154"/>
      <point x="1240" y="64"/>
      <point x="1164" y="64" type="curve" smooth="yes"/>
      <point x="1110" y="64"/>
      <point x="1096" y="105"/>
      <point x="1096" y="152" type="curve" smooth="yes"/>
      <point x="1096" y="244"/>
      <point x="1129" y="340"/>
    </contour>
  </outline>
</glyph>
<glyph name="second" format="2">
  <advance width="492"/>
  <unicode hex="2033"/>
  <outline>
    <contour>
      <point x="169" y="705" type="line"/>
      <point x="94" y="520" type="line"/>
      <point x="197" y="520" type="line"/>
      <point x="314" y="705" type="line"/>
    </contour>
    <contour>
      <point x="366" y="705" type="line"/>
      <point x="291" y="520" type="line"/>
      <point x="394" y="520" type="line"/>
      <point x="511" y="705" type="line"/>
    </contour>
  </outline>
</glyph>
<glyph name="zerosuperior" format="2">
  <advance width="455"/>
  <unicode hex="2070"/>
  <outline>
    <contour>
      <point x="334" y="935" type="curve" smooth="yes"/>
      <point x="170" y="935"/>
      <point x="69" y="790"/>
      <point x="69" y="619" type="curve" smooth="yes"/>
      <point x="69" y="507"/>
      <point x="126" y="426"/>
      <point x="244" y="426" type="curve" smooth="yes"/>
      <point x="404" y="426"/>
      <point x="508" y="574"/>
      <point x="508" y="746" type="curve" smooth="yes"/>
      <point x="508" y="858"/>
      <point x="454" y="935"/>
    </contour>
    <contour>
      <point x="315" y="846" type="curve" smooth="yes"/>
      <point x="378" y="846"/>
      <point x="394" y="795"/>
      <point x="394" y="740" type="curve" smooth="yes"/>
      <point x="394" y="625"/>
      <point x="354" y="515"/>
      <point x="263" y="515" type="curve" smooth="yes"/>
      <point x="199" y="515"/>
      <point x="182" y="563"/>
      <point x="182" y="617" type="curve" smooth="yes"/>
      <point x="182" y="727"/>
      <point x="226" y="846"/>
    </contour>
  </outline>
</glyph>
<glyph name="foursuperior" format="2">
  <advance width="455"/>
  <unicode hex="2074"/>
  <outline>
    <contour>
      <point x="288" y="539" type="line"/>
      <point x="272" y="438" type="line"/>
      <point x="386" y="438" type="line"/>
      <point x="402" y="539" type="line"/>
      <point x="449" y="539" type="line"/>
      <point x="486" y="618" type="line"/>
      <point x="414" y="618" type="line"/>
      <point x="462" y="924" type="line"/>
      <point x="349" y="924" type="line"/>
      <point x="71" y="591" type="line"/>
      <point x="63" y="539" type="line"/>
    </contour>
    <contour>
      <point x="336" y="794" type="line"/>
      <point x="300" y="618" type="line"/>
      <point x="190" y="618" type="line"/>
    </contour>
  </outline>
</glyph>
<glyph name="eightsuperior" format="2">
  <advance width="455"/>
  <unicode hex="2078"/>
  <outline>
    <contour>
      <point x="476" y="830" type="curve" smooth="yes"/>
      <point x="476" y="899"/>
      <point x="409" y="933"/>
      <point x="334" y="933" type="curve" smooth="yes"/>
      <point x="240" y="933"/>
      <point x="134" y="880"/>
      <point x="134" y="773" type="curve" smooth="yes"/>
      <point x="134" y="641"/>
      <point x="348" y="635"/>
      <point x="337" y="562" type="curve" smooth="yes"/>
      <point x="330" y="518"/>
      <point x="286" y="496"/>
      <point x="244" y="496" type="curve" smooth="yes"/>
      <point x="206" y="496"/>
      <point x="171" y="515"/>
      <point x="171" y="554" type="curve" smooth="yes"/>
      <point x="171" y="589"/>
      <point x="199" y="642"/>
      <point x="265" y="656" type="curve"/>
      <point x="232" y="706" type="line"/>
      <point x="149" y="682"/>
      <point x="80" y="614"/>
      <point x="80" y="542" type="curve" smooth="yes"/>
      <point x="80" y="464"/>
      <point x="158" y="425"/>
      <point x="242" y="425" type="curve" smooth="yes"/>
      <point x="353" y="425"/>
      <point x="458" y="491"/>
      <point x="458" y="597" type="curve" smooth="yes"/>
      <point x="458" y="730"/>
      <point x="252" y="735"/>
      <point x="252" y="803" type="curve" smooth="yes"/>
      <point x="252" y="841"/>
      <point x="294" y="863"/>
      <point x="331" y="863" type="curve" smooth="yes"/>
      <point x="360" y="863"/>
      <point x="387" y="848"/>
      <point x="387" y="817" type="curve" smooth="yes"/>
      <point x="387" y="779"/>
      <point x="361" y="746"/>
      <point x="311" y="729" type="curve"/>
      <point x="344" y="681" type="line"/>
      <point x="439" y="712"/>
      <point x="476" y="784"/>
    </contour>
  </outline>
</glyph>
<glyph name="ninesuperior" format="2">
  <advance width="455"/>
  <unicode hex="2079"/>
  <outline>
    <contour>
      <point x="117" y="425" type="line"/>
      <point x="312" y="453"/>
      <point x="480" y="607"/>
      <point x="480" y="791" type="curve" smooth="yes"/>
      <point x="480" y="891"/>
      <point x="411" y="935"/>
      <point x="332" y="935" type="curve" smooth="yes"/>
      <point x="186" y="935"/>
      <point x="107" y="828"/>
      <point x="107" y="739" type="curve" smooth="yes"/>
      <point x="107" y="676"/>
      <point x="147" y="621"/>
      <point x="232" y="621" type="curve" smooth="yes"/>
      <point x="267" y="621"/>
      <point x="305" y="630"/>
      <point x="345" y="650" type="curve"/>
      <point x="369" y="728" type="line"/>
      <point x="337" y="710"/>
      <point x="304" y="699"/>
      <point x="278" y="699" type="curve" smooth="yes"/>
      <point x="238" y="699"/>
      <point x="222" y="726"/>
      <point x="222" y="758" type="curve" smooth="yes"/>
      <point x="222" y="810"/>
      <point x="255" y="863"/>
      <point x="313" y="863" type="curve" smooth="yes"/>
      <point x="347" y="863"/>
      <point x="367" y="843"/>
      <point x="367" y="795" type="curve" smooth="yes"/>
      <point x="367" y="640"/>
      <point x="270" y="538"/>
      <point x="96" y="487" type="curve"/>
    </contour>
  </outline>
</glyph>
<glyph name="lira" format="2">
  <advance width="581"/>
  <unicode hex="20A4"/>
  <outline>
    <contour>
      <point x="13" y="100" type="line"/>
      <point x="-1" y="0" type="line"/>
      <point x="520" y="0" type="line"/>
      <point x="534" y="100" type="line"/>
      <point x="241" y="100" type="line"/>
      <point x="300" y="514" type="line"/>
      <point x="307" y="568"/>
      <point x="341" y="610"/>
      <point x="398" y="610" type="curve" smooth="yes"/>
      <point x="444" y="610"/>
      <point x="472" y="575"/>
      <point x="487" y="537" type="curve"/>
      <point x="592" y="591" type="line"/>
      <point x="556" y="665"/>
      <point x="502" y="706"/>
      <point x="413" y="706" type="curve" smooth="yes"/>
      <point x="286" y="706"/>
      <point x="181" y="633"/>
      <point x="163" y="500" type="curve"/>
      <point x="106" y="100" type="line"/>
    </contour>
    <contour>
      <point x="91" y="446" type="line"/>
      <point x="67" y="364" type="line"/>
      <point x="425" y="364" type="line"/>
      <point x="449" y="446" type="line"/>
    </contour>
    <contour>
      <point x="72" y="306" type="line"/>
      <point x="47" y="224" type="line"/>
      <point x="405" y="224" type="line"/>
      <point x="430" y="306" type="line"/>
    </contour>
  </outline>
</glyph>
<glyph name="naira" format="2">
  <advance width="714"/>
  <unicode hex="20A6"/>
  <outline>
    <contour>
      <point x="296" y="706" type="line"/>
      <point x="132" y="706" type="line"/>
      <point x="137" y="645" type="line"/>
      <point x="47" y="0" type="line"/>
      <point x="158" y="0" type="line"/>
      <point x="227" y="492" type="line" smooth="yes"/>
      <point x="230" y="514"/>
      <point x="229" y="537"/>
      <point x="230" y="559" type="curve"/>
      <point x="240" y="537"/>
      <point x="253" y="514"/>
      <point x="263" y="492" type="curve" smooth="yes"/>
      <point x="492" y="-5" type="line"/>
      <point x="600" y="-5" type="line"/>
      <point x="700" y="706" type="line"/>
      <point x="589" y="706" type="line"/>
      <point x="530" y="284" type="line" smooth="yes"/>
      <point x="526" y="259"/>
      <point x="526" y="232"/>
      <point x="525" y="207" type="curve"/>
      <point x="515" y="229"/>
      <point x="503" y="251"/>
      <point x="493" y="273" type="curve" smooth="yes"/>
    </contour>
    <contour>
      <point x="58" y="491" type="line"/>
      <point x="33" y="409" type="line"/>
      <point x="719" y="409" type="line"/>
      <point x="744" y="491" type="line"/>
    </contour>
    <contour>
      <point x="40" y="361" type="line"/>
      <point x="15" y="279" type="line"/>
      <point x="701" y="279" type="line"/>
      <point x="726" y="361" type="line"/>
    </contour>
  </outline>
</glyph>
<glyph name="peseta" format="2">
  <advance width="615"/>
  <unicode hex="20A7"/>
  <outline>
    <contour>
      <point x="136" y="706" type="line"/>
      <point x="142" y="645" type="line"/>
      <point x="51" y="0" type="line"/>
      <point x="188" y="0" type="line"/>
      <point x="229" y="288" type="line"/>
      <point x="311" y="288" type="line" smooth="yes"/>
      <point x="479" y="288"/>
      <point x="607" y="371"/>
      <point x="607" y="537" type="curve" smooth="yes"/>
      <point x="607" y="669"/>
      <point x="500" y="706"/>
      <point x="368" y="706" type="curve" smooth="yes"/>
    </contour>
    <contour>
      <point x="275" y="607" type="line"/>
      <point x="360" y="607" type="line" smooth="yes"/>
      <point x="427" y="607"/>
      <point x="460" y="578"/>
      <point x="460" y="521" type="curve" smooth="yes"/>
      <point x="460" y="443"/>
      <point x="413" y="385"/>
      <point x="327" y="385" type="curve" smooth="yes"/>
      <point x="243" y="385" type="line"/>
    </contour>
    <contour>
      <point x="15" y="208" type="line"/>
      <point x="-10" y="126" type="line"/>
      <point x="348" y="126" type="line"/>
      <point x="373" y="208" type="line"/>
    </contour>
  </outline>
</glyph>
<glyph name="won" format="2">
  <advance width="914"/>
  <unicode hex="20A9"/>
  <outline>
    <contour>
      <point x="219" y="706" type="line"/>
      <point x="81" y="706" type="line"/>
      <point x="172" y="-2" type="line"/>
      <point x="300" y="-2" type="line"/>
      <point x="448" y="355" type="line" smooth="yes"/>
      <point x="471" y="409"/>
      <point x="481" y="464"/>
      <point x="497" y="520" type="curve"/>
      <point x="495" y="482"/>
      <point x="497" y="445"/>
      <point x="501" y="408" type="curve" smooth="yes"/>
      <point x="546" y="-2" type="line"/>
      <point x="670" y="-2" type="line"/>
      <point x="963" y="706" type="line"/>
      <point x="852" y="706" type="line"/>
      <point x="702" y="326" type="line" smooth="yes"/>
      <point x="681" y="272"/>
      <point x="661" y="218"/>
      <point x="645" y="162" type="curve"/>
      <point x="646" y="204"/>
      <point x="646" y="247"/>
      <point x="642" y="287" type="curve" smooth="yes"/>
      <point x="594" y="706" type="line"/>
      <point x="478" y="706" type="line"/>
      <point x="329" y="326" type="line" smooth="yes"/>
      <point x="308" y="272"/>
      <point x="287" y="218"/>
      <point x="271" y="162" type="curve"/>
      <point x="271" y="205"/>
      <point x="270" y="248"/>
      <point x="266" y="289" type="curve" smooth="yes"/>
    </contour>
    <contour>
      <point x="51" y="447" type="line"/>
      <point x="27" y="369" type="line"/>
      <point x="907" y="369" type="line"/>
      <point x="931" y="447" type="line"/>
    </contour>
    <contour>
      <point x="35" y="323" type="line"/>
      <point x="10" y="245" type="line"/>
      <point x="890" y="245" type="line"/>
      <point x="915" y="323" type="line"/>
    </contour>
  </outline>
</glyph>
<glyph name="dong" format="2">
  <advance width="596"/>
  <unicode hex="20AB"/>
  <anchor x="422" y="636" name="center"/>
  <anchor x="372" y="531" name="topright"/>
  <outline>
    <contour>
      <point x="39" y="-82" type="line"/>
      <point x="26" y="-164" type="line"/>
      <point x="458" y="-164" type="line"/>
      <point x="471" y="-82" type="line"/>
    </contour>
    <component base="dcroat" xOffset="14"/>
  </outline>
</glyph>
<glyph name="kip" format="2">
  <advance width="643"/>
  <unicode hex="20AD"/>
  <outline>
    <contour>
      <point x="137" y="706" type="line"/>
      <point x="142" y="645" type="line"/>
      <point x="51" y="0" type="line"/>
      <point x="189" y="0" type="line"/>
      <point x="240" y="358" type="line"/>
      <point x="422" y="0" type="line"/>
      <point x="582" y="0" type="line"/>
      <point x="379" y="399" type="line"/>
      <point x="661" y="706" type="line"/>
      <point x="533" y="706" type="line"/>
      <point x="244" y="392" type="line"/>
      <point x="289" y="706" type="line"/>
    </contour>
    <contour>
      <point x="58" y="419" type="line"/>
      <point x="33" y="337" type="line"/>
      <point x="590" y="337" type="line"/>
      <point x="615" y="419" type="line"/>
    </contour>
  </outline>
</glyph>
<glyph name="cedi" format="2">
  <advance width="613"/>
  <unicode hex="20B5"/>
  <outline>
    <contour>
      <point x="230" y="706"/>
      <point x="68" y="516"/>
      <point x="68" y="276" type="curve" smooth="yes"/>
      <point x="68" y="87"/>
      <point x="179" y="-12"/>
      <point x="332" y="-12" type="curve" smooth="yes"/>
      <point x="403" y="-12"/>
      <point x="474" y="11"/>
      <point x="551" y="59" type="curve"/>
      <point x="512" y="140" type="line"/>
      <point x="452" y="102"/>
      <point x="396" y="85"/>
      <point x="348" y="85" type="curve" smooth="yes"/>
      <point x="267" y="85"/>
      <point x="216" y="149"/>
      <point x="216" y="273" type="curve" smooth="yes"/>
      <point x="216" y="437"/>
      <point x="293" y="609"/>
      <point x="439" y="609" type="curve" smooth="yes"/>
      <point x="489" y="609"/>
      <point x="539" y="587"/>
      <point x="582" y="542" type="curve"/>
      <point x="626" y="666" type="line"/>
      <point x="577" y="693"/>
      <point x="513" y="706"/>
      <point x="458" y="706" type="curve" smooth="yes"/>
    </contour>
    <contour>
      <point x="269" y="-106" type="line"/>
      <point x="349" y="-119" type="line"/>
      <point x="477" y="795" type="line"/>
      <point x="397" y="808" type="line"/>
    </contour>
  </outline>
</glyph>
<glyph name="liraTurkish" format="2">
  <advance width="568"/>
  <unicode hex="20BA"/>
  <outline>
    <contour>
      <point x="138" y="706" type="line"/>
      <point x="142" y="645" type="line"/>
      <point x="51" y="0" type="line"/>
      <point x="236" y="0" type="line" smooth="yes"/>
      <point x="413" y="0"/>
      <point x="523" y="113"/>
      <point x="549" y="296" type="curve"/>
      <point x="414" y="296" type="line"/>
      <point x="399" y="192"/>
      <point x="358" y="99"/>
      <point x="251" y="99" type="curve" smooth="yes"/>
      <point x="204" y="99" type="line"/>
      <point x="290" y="706" type="line"/>
    </contour>
    <contour>
      <point x="44" y="395" type="line"/>
      <point x="18" y="306" type="line"/>
      <point x="378" y="409" type="line"/>
      <point x="403" y="498" type="line"/>
    </contour>
    <contour>
      <point x="27" y="265" type="line"/>
      <point x="0" y="176" type="line"/>
      <point x="360" y="279" type="line"/>
      <point x="386" y="368" type="line"/>
    </contour>
  </outline>
</glyph>
<glyph name="manat" format="2">
  <advance width="781"/>
  <unicode hex="20BC"/>
  <outline>
    <contour>
      <point x="535" y="0" type="line"/>
      <point x="682" y="0" type="line"/>
      <point x="729" y="330" type="line" smooth="yes"/>
      <point x="759" y="544"/>
      <point x="681" y="706"/>
      <point x="458" y="706" type="curve" smooth="yes"/>
      <point x="234" y="706"/>
      <point x="106" y="544"/>
      <point x="76" y="330" type="curve" smooth="yes"/>
      <point x="29" y="0" type="line"/>
      <point x="176" y="0" type="line"/>
      <point x="220" y="312" type="line" smooth="yes"/>
      <point x="238" y="441"/>
      <point x="288" y="607"/>
      <point x="442" y="607" type="curve" smooth="yes"/>
      <point x="596" y="607"/>
      <point x="597" y="441"/>
      <point x="579" y="312" type="curve" smooth="yes"/>
    </contour>
    <contour>
      <point x="330" y="104" type="line"/>
      <point x="410" y="91" type="line"/>
      <point x="509" y="795" type="line"/>
      <point x="429" y="808" type="line"/>
    </contour>
  </outline>
</glyph>
<glyph name="ruble" format="2">
  <advance width="615"/>
  <unicode hex="20BD"/>
  <outline>
    <contour>
      <point x="136" y="706" type="line"/>
      <point x="142" y="645" type="line"/>
      <point x="51" y="0" type="line"/>
      <point x="188" y="0" type="line"/>
      <point x="229" y="288" type="line"/>
      <point x="311" y="288" type="line" smooth="yes"/>
      <point x="479" y="288"/>
      <point x="607" y="372"/>
      <point x="607" y="537" type="curve" smooth="yes"/>
      <point x="607" y="669"/>
      <point x="500" y="706"/>
      <point x="368" y="706" type="curve" smooth="yes"/>
    </contour>
    <contour>
      <point x="275" y="607" type="line"/>
      <point x="360" y="607" type="line" smooth="yes"/>
      <point x="427" y="607"/>
      <point x="460" y="578"/>
      <point x="460" y="521" type="curve" smooth="yes"/>
      <point x="460" y="438"/>
      <point x="408" y="375"/>
      <point x="326" y="375" type="curve" smooth="yes"/>
      <point x="242" y="375" type="line"/>
    </contour>
    <contour>
      <point x="15" y="208" type="line"/>
      <point x="-10" y="126" type="line"/>
      <point x="348" y="126" type="line"/>
      <point x="373" y="208" type="line"/>
    </contour>
    <contour>
      <point x="38" y="375" type="line"/>
      <point x="13" y="288" type="line"/>
      <point x="191" y="288" type="line"/>
      <point x="216" y="375" type="line"/>
    </contour>
  </outline>
</glyph>
<glyph name="literSign" format="2">
  <advance width="461"/>
  <unicode hex="2113"/>
  <outline>
    <contour>
      <point x="337" y="770" type="curve" smooth="yes"/>
      <point x="237" y="770"/>
      <point x="157" y="708"/>
      <point x="139" y="581" type="curve" smooth="yes"/>
      <point x="80" y="159"/>
      <point x="72" y="117"/>
      <point x="72" y="84" type="curve" smooth="yes"/>
      <point x="72" y="19"/>
      <point x="106" y="-10"/>
      <point x="181" y="-10" type="curve" smooth="yes"/>
      <point x="217" y="-10"/>
      <point x="266" y="0"/>
      <point x="302" y="11" type="curve"/>
      <point x="299" y="86" type="line"/>
      <point x="277" y="81"/>
      <point x="254" y="76"/>
      <point x="232" y="76" type="curve" smooth="yes"/>
      <point x="204" y="76"/>
      <point x="198" y="97"/>
      <point x="198" y="118" type="curve" smooth="yes"/>
      <point x="198" y="132"/>
      <point x="199" y="137"/>
      <point x="266" y="618" type="curve" smooth="yes"/>
      <point x="272" y="659"/>
      <point x="296" y="680"/>
      <point x="317" y="680" type="curve" smooth="yes"/>
      <point x="335" y="680"/>
      <point x="352" y="664"/>
      <point x="352" y="631" type="curve" smooth="yes"/>
      <point x="352" y="437"/>
      <point x="223" y="328"/>
      <point x="19" y="263" type="curve"/>
      <point x="36" y="174" type="line"/>
      <point x="277" y="229"/>
      <point x="467" y="414"/>
      <point x="467" y="640" type="curve" smooth="yes"/>
      <point x="467" y="727"/>
      <point x="416" y="770"/>
    </contour>
  </outline>
</glyph>
<glyph name="trademark" format="2">
  <advance width="568"/>
  <unicode hex="2122"/>
  <note>
trademark
</note>
  <outline>
    <contour>
      <point x="232" y="686" type="line"/>
      <point x="305" y="686" type="line"/>
      <point x="311" y="732" type="line"/>
      <point x="107" y="732" type="line"/>
      <point x="101" y="686" type="line"/>
      <point x="172" y="686" type="line"/>
      <point x="145" y="497" type="line"/>
      <point x="206" y="497" type="line"/>
    </contour>
    <contour>
      <point x="481" y="497" type="line"/>
      <point x="540" y="497" type="line"/>
      <point x="573" y="732" type="line"/>
      <point x="500" y="732" type="line"/>
      <point x="429" y="596" type="line"/>
      <point x="397" y="732" type="line"/>
      <point x="323" y="732" type="line"/>
      <point x="290" y="497" type="line"/>
      <point x="342" y="497" type="line"/>
      <point x="360" y="631" type="line"/>
      <point x="394" y="497" type="line"/>
      <point x="430" y="497" type="line"/>
      <point x="498" y="625" type="line"/>
    </contour>
  </outline>
</glyph>
<glyph name="approxequal" format="2">
  <advance width="657"/>
  <unicode hex="2248"/>
  <note>
approxequal
</note>
  <outline>
    <contour>
      <point x="84" y="326" type="curve"/>
      <point x="148" y="281" type="line"/>
      <point x="171" y="310"/>
      <point x="203" y="340"/>
      <point x="237" y="340" type="curve" smooth="yes"/>
      <point x="292" y="340"/>
      <point x="354" y="270"/>
      <point x="443" y="270" type="curve" smooth="yes"/>
      <point x="504" y="270"/>
      <point x="565" y="320"/>
      <point x="600" y="372" type="curve"/>
      <point x="536" y="417" type="line"/>
      <point x="513" y="388"/>
      <point x="481" y="358"/>
      <point x="447" y="358" type="curve" smooth="yes"/>
      <point x="392" y="358"/>
      <point x="330" y="428"/>
      <point x="241" y="428" type="curve" smooth="yes"/>
      <point x="180" y="428"/>
      <point x="118" y="378"/>
    </contour>
    <contour>
      <point x="57" y="135" type="curve"/>
      <point x="121" y="90" type="line"/>
      <point x="144" y="119"/>
      <point x="176" y="149"/>
      <point x="210" y="149" type="curve" smooth="yes"/>
      <point x="265" y="149"/>
      <point x="327" y="79"/>
      <point x="416" y="79" type="curve" smooth="yes"/>
      <point x="477" y="79"/>
      <point x="539" y="129"/>
      <point x="573" y="181" type="curve"/>
      <point x="509" y="226" type="line"/>
      <point x="486" y="197"/>
      <point x="454" y="167"/>
      <point x="420" y="167" type="curve" smooth="yes"/>
      <point x="365" y="167"/>
      <point x="303" y="237"/>
      <point x="214" y="237" type="curve" smooth="yes"/>
      <point x="153" y="237"/>
      <point x="92" y="187"/>
    </contour>
  </outline>
</glyph>
<glyph name="notequal" format="2">
  <advance width="630"/>
  <unicode hex="2260"/>
  <note>
notequal
</note>
  <outline>
    <contour>
      <point x="207" y="0" type="line"/>
      <point x="273" y="109" type="line"/>
      <point x="544" y="109" type="line"/>
      <point x="557" y="197" type="line"/>
      <point x="328" y="197" type="line"/>
      <point x="392" y="302" type="line"/>
      <point x="572" y="302" type="line"/>
      <point x="584" y="390" type="line"/>
      <point x="446" y="390" type="line"/>
      <point x="511" y="497" type="line"/>
      <point x="413" y="497" type="line"/>
      <point x="348" y="390" type="line"/>
      <point x="86" y="390" type="line"/>
      <point x="74" y="302" type="line"/>
      <point x="295" y="302" type="line"/>
      <point x="232" y="197" type="line"/>
      <point x="59" y="197" type="line"/>
      <point x="46" y="109" type="line"/>
      <point x="178" y="109" type="line"/>
      <point x="112" y="0" type="line"/>
    </contour>
  </outline>
</glyph>
<glyph name="lozenge" format="2">
  <advance width="504"/>
  <unicode hex="25CA"/>
  <note>
lozenge
</note>
  <outline>
    <contour>
      <point x="300" y="739" type="line"/>
      <point x="41" y="362" type="line"/>
      <point x="194" y="-14" type="line"/>
      <point x="236" y="-14" type="line"/>
      <point x="495" y="362" type="line"/>
      <point x="342" y="739" type="line"/>
    </contour>
    <contour>
      <point x="303" y="624" type="line"/>
      <point x="307" y="624" type="line"/>
      <point x="406" y="362" type="line"/>
      <point x="233" y="101" type="line"/>
      <point x="229" y="101" type="line"/>
      <point x="129" y="362" type="line"/>
    </contour>
  </outline>
</glyph>
<glyph name="leftanglebracket-math" format="2">
  <advance width="412"/>
  <unicode hex="27E8"/>
  <outline>
    <contour>
      <point x="46" y="292" type="line"/>
      <point x="250" y="-78" type="line"/>
      <point x="327" y="-67" type="line"/>
      <point x="156" y="292" type="line"/>
      <point x="425" y="650" type="line"/>
      <point x="350" y="664" type="line"/>
    </contour>
  </outline>
</glyph>
<glyph name="fi" format="2">
  <advance width="530"/>
  <unicode hex="FB01"/>
  <note>
fi
</note>
  <outline>
    <contour>
      <point x="-104" y="-149" type="curve"/>
      <point x="-120" y="-216" type="line"/>
      <point x="20" y="-261"/>
      <point x="127" y="-203"/>
      <point x="149" y="-47" type="curve" smooth="yes"/>
      <point x="211" y="414" type="line"/>
      <point x="384" y="414" type="line"/>
      <point x="328" y="0" type="line"/>
      <point x="452" y="0" type="line"/>
      <point x="450" y="55" type="line"/>
      <point x="509" y="497" type="line"/>
      <point x="222" y="497" type="line"/>
      <point x="233" y="590"/>
      <point x="259" y="694"/>
      <point x="344" y="694" type="curve" smooth="yes"/>
      <point x="387" y="694"/>
      <point x="413" y="641"/>
      <point x="413" y="600" type="curve"/>
      <point x="525" y="631" type="line"/>
      <point x="501" y="749"/>
      <point x="396" y="776"/>
      <point x="350" y="776" type="curve" smooth="yes"/>
      <point x="185" y="776"/>
      <point x="152" y="660"/>
      <point x="117" y="545" type="curve" smooth="yes"/>
      <point x="102" y="497"/>
      <point x="62" y="497"/>
      <point x="28" y="497" type="curve"/>
      <point x="18" y="414" type="line"/>
      <point x="97" y="414" type="line"/>
      <point x="36" y="-35" type="line" smooth="yes"/>
      <point x="23" y="-128"/>
      <point x="-15" y="-173"/>
    </contour>
  </outline>
</glyph>
<glyph name="IJacute" format="2">
  <advance width="504"/>
  <outline>
    <contour>
      <point x="95" y="732" type="line"/>
      <point x="101" y="671" type="line"/>
      <point x="11" y="0" type="line"/>
      <point x="142" y="0" type="line"/>
      <point x="239" y="732" type="line"/>
    </contour>
    <contour>
      <point x="349" y="732" type="line"/>
      <point x="355" y="671" type="line"/>
      <point x="271" y="47" type="line" smooth="yes"/>
      <point x="260" y="-34"/>
      <point x="240" y="-119"/>
      <point x="141" y="-131" type="curve"/>
      <point x="142" y="-209" type="line"/>
      <point x="340" y="-200"/>
      <point x="387" y="-70"/>
      <point x="409" y="98" type="curve" smooth="yes"/>
      <point x="493" y="732" type="line"/>
    </contour>
    <contour>
      <point x="254" y="923" type="line"/>
      <point x="125" y="779" type="line"/>
      <point x="229" y="779" type="line"/>
      <point x="400" y="923" type="line"/>
    </contour>
    <contour>
      <point x="506" y="923" type="line"/>
      <point x="377" y="779" type="line"/>
      <point x="481" y="779" type="line"/>
      <point x="652" y="923" type="line"/>
    </contour>
  </outline>
</glyph>
<glyph name="acute.case" format="2">
  <advance width="315"/>
  <anchor x="150" y="732" name="_top"/>
  <outline>
    <contour>
      <point x="234" y="923" type="line"/>
      <point x="105" y="779" type="line"/>
      <point x="209" y="779" type="line"/>
      <point x="380" y="923" type="line"/>
    </contour>
  </outline>
</glyph>
<glyph name="acute.loclPLK.case" format="2">
  <advance width="255"/>
  <anchor x="150" y="732" name="_top"/>
  <outline>
    <contour>
      <point x="174" y="923" type="line"/>
      <point x="105" y="779" type="line"/>
      <point x="209" y="779" type="line"/>
      <point x="320" y="923" type="line"/>
    </contour>
  </outline>
</glyph>
<glyph name="acute.loclPLK" format="2">
  <advance width="257"/>
  <anchor x="118" y="497" name="_top"/>
  <outline>
    <contour>
      <point x="151" y="735" type="line"/>
      <point x="78" y="570" type="line"/>
      <point x="181" y="570" type="line"/>
      <point x="296" y="735" type="line"/>
    </contour>
  </outline>
</glyph>
<glyph name="brevebelow" format="2">
  <advance width="301"/>
  <anchor x="115" y="0" name="bottom"/>
  <outline>
    <contour>
      <point x="256" y="-69" type="curve"/>
      <point x="187" y="-69" type="line"/>
      <point x="171" y="-114"/>
      <point x="143" y="-139"/>
      <point x="95" y="-139" type="curve" smooth="yes"/>
      <point x="46" y="-139"/>
      <point x="27" y="-115"/>
      <point x="22" y="-69" type="curve"/>
      <point x="-45" y="-69" type="line"/>
      <point x="-50" y="-160"/>
      <point x="-15" y="-229"/>
      <point x="83" y="-229" type="curve" smooth="yes"/>
      <point x="187" y="-229"/>
      <point x="231" y="-162"/>
    </contour>
  </outline>
</glyph>
<glyph name="brevegrave.case" format="2">
  <advance width="301"/>
  <anchor x="219" y="732" name="_top"/>
  <outline>
    <contour>
      <point x="95" y="922" type="line"/>
      <point x="97" y="849"/>
      <point x="125" y="782"/>
      <point x="229" y="782" type="curve" smooth="yes"/>
      <point x="327" y="782"/>
      <point x="378" y="851"/>
      <point x="396" y="922" type="curve"/>
      <point x="329" y="922" type="line"/>
      <point x="314" y="896"/>
      <point x="288" y="872"/>
      <point x="239" y="872" type="curve" smooth="yes"/>
      <point x="191" y="872"/>
      <point x="171" y="897"/>
      <point x="164" y="922" type="curve"/>
    </contour>
    <contour>
      <point x="220" y="1046" type="line"/>
      <point x="94" y="1046" type="line"/>
      <point x="207" y="922" type="line"/>
      <point x="291" y="922" type="line"/>
    </contour>
  </outline>
</glyph>
<glyph name="brevegrave" format="2">
  <advance width="302"/>
  <anchor x="187" y="497" name="_top"/>
  <outline>
    <contour>
      <point x="69" y="732" type="line"/>
      <point x="68" y="639"/>
      <point x="94" y="572"/>
      <point x="198" y="572" type="curve" smooth="yes"/>
      <point x="296" y="572"/>
      <point x="349" y="641"/>
      <point x="370" y="732" type="curve"/>
      <point x="303" y="732" type="line"/>
      <point x="286" y="686"/>
      <point x="259" y="662"/>
      <point x="210" y="662" type="curve" smooth="yes"/>
      <point x="162" y="662"/>
      <point x="142" y="687"/>
      <point x="138" y="732" type="curve"/>
    </contour>
    <contour>
      <point x="201" y="876" type="line"/>
      <point x="66" y="876" type="line"/>
      <point x="177" y="731" type="line"/>
      <point x="270" y="731" type="line"/>
    </contour>
  </outline>
</glyph>
<glyph name="brevehook.case" format="2">
  <advance width="301"/>
  <anchor x="219" y="732" name="_top"/>
  <outline>
    <contour>
      <point x="396" y="922" type="curve"/>
      <point x="327" y="922" type="line"/>
      <point x="314" y="897"/>
      <point x="286" y="872"/>
      <point x="238" y="872" type="curve" smooth="yes"/>
      <point x="189" y="872"/>
      <point x="170" y="896"/>
      <point x="162" y="922" type="curve"/>
      <point x="95" y="922" type="line"/>
      <point x="93" y="851"/>
      <point x="125" y="782"/>
      <point x="223" y="782" type="curve" smooth="yes"/>
      <point x="327" y="782"/>
      <point x="374" y="849"/>
    </contour>
    <contour>
      <point x="223" y="922" type="line"/>
      <point x="268" y="922" type="line"/>
      <point x="281" y="964" type="line"/>
      <point x="333" y="965"/>
      <point x="376" y="1001"/>
      <point x="376" y="1053" type="curve" smooth="yes"/>
      <point x="376" y="1093"/>
      <point x="336" y="1114"/>
      <point x="290" y="1114" type="curve" smooth="yes"/>
      <point x="258" y="1114"/>
      <point x="223" y="1104"/>
      <point x="193" y="1086" type="curve"/>
      <point x="210" y="1039" type="line"/>
      <point x="227" y="1047"/>
      <point x="247" y="1053"/>
      <point x="262" y="1053" type="curve" smooth="yes"/>
      <point x="280" y="1053"/>
      <point x="291" y="1047"/>
      <point x="291" y="1032" type="curve" smooth="yes"/>
      <point x="291" y="1006"/>
      <point x="271" y="999"/>
      <point x="251" y="999" type="curve" smooth="yes"/>
      <point x="241" y="999"/>
      <point x="230" y="1001"/>
      <point x="222" y="1004" type="curve"/>
    </contour>
  </outline>
</glyph>
<glyph name="brevehook" format="2">
  <advance width="301"/>
  <anchor x="185" y="497" name="_top"/>
  <outline>
    <contour>
      <point x="369" y="732" type="curve"/>
      <point x="300" y="732" type="line"/>
      <point x="283" y="687"/>
      <point x="256" y="662"/>
      <point x="208" y="662" type="curve" smooth="yes"/>
      <point x="159" y="662"/>
      <point x="139" y="686"/>
      <point x="135" y="732" type="curve"/>
      <point x="68" y="732" type="line"/>
      <point x="63" y="641"/>
      <point x="97" y="572"/>
      <point x="195" y="572" type="curve" smooth="yes"/>
      <point x="299" y="572"/>
      <point x="344" y="639"/>
    </contour>
    <contour>
      <point x="195" y="732" type="line"/>
      <point x="241" y="732" type="line"/>
      <point x="254" y="774" type="line"/>
      <point x="306" y="775"/>
      <point x="349" y="813"/>
      <point x="349" y="861" type="curve" smooth="yes"/>
      <point x="349" y="903"/>
      <point x="310" y="924"/>
      <point x="262" y="924" type="curve" smooth="yes"/>
      <point x="230" y="924"/>
      <point x="195" y="914"/>
      <point x="166" y="896" type="curve"/>
      <point x="183" y="849" type="line"/>
      <point x="199" y="857"/>
      <point x="219" y="863"/>
      <point x="235" y="863" type="curve" smooth="yes"/>
      <point x="253" y="863"/>
      <point x="264" y="856"/>
      <point x="264" y="841" type="curve" smooth="yes"/>
      <point x="264" y="816"/>
      <point x="243" y="809"/>
      <point x="223" y="809" type="curve" smooth="yes"/>
      <point x="213" y="809"/>
      <point x="203" y="811"/>
      <point x="194" y="814" type="curve"/>
    </contour>
  </outline>
</glyph>
<glyph name="breveinverted" format="2">
  <advance width="301"/>
  <anchor x="185" y="497" name="_top"/>
  <outline>
    <contour>
      <point x="46" y="572" type="curve"/>
      <point x="115" y="572" type="line"/>
      <point x="131" y="617"/>
      <point x="159" y="642"/>
      <point x="207" y="642" type="curve" smooth="yes"/>
      <point x="256" y="642"/>
      <point x="275" y="618"/>
      <point x="280" y="572" type="curve"/>
      <point x="347" y="572" type="line"/>
      <point x="352" y="663"/>
      <point x="322" y="732"/>
      <point x="224" y="732" type="curve" smooth="yes"/>
      <point x="120" y="732"/>
      <point x="71" y="665"/>
    </contour>
  </outline>
</glyph>
<glyph name="caron.alt" format="2">
  <advance width="210"/>
  <anchor x="-107" y="497" name="_topright"/>
  <outline>
    <contour>
      <point x="112" y="735" type="line"/>
      <point x="78" y="570" type="line"/>
      <point x="176" y="570" type="line"/>
      <point x="247" y="735" type="line"/>
    </contour>
  </outline>
</glyph>
<glyph name="circumflex.case" format="2">
  <advance width="293"/>
  <anchor x="213" y="732" name="_top"/>
  <outline>
    <contour>
      <point x="229" y="832" type="line"/>
      <point x="281" y="788" type="line"/>
      <point x="369" y="788" type="line"/>
      <point x="288" y="913" type="line"/>
      <point x="190" y="913" type="line"/>
      <point x="76" y="788" type="line"/>
      <point x="162" y="788" type="line"/>
    </contour>
  </outline>
</glyph>
<glyph name="circumflexacute.case" format="2">
  <advance width="293"/>
  <anchor x="213" y="732" name="_top"/>
  <outline>
    <contour>
      <point x="228" y="832" type="line"/>
      <point x="281" y="788" type="line"/>
      <point x="369" y="788" type="line"/>
      <point x="287" y="913" type="line"/>
      <point x="189" y="913" type="line"/>
      <point x="76" y="788" type="line"/>
      <point x="162" y="788" type="line"/>
    </contour>
    <contour>
      <point x="271" y="1050" type="line"/>
      <point x="200" y="945" type="line"/>
      <point x="288" y="945" type="line"/>
      <point x="401" y="1050" type="line"/>
    </contour>
  </outline>
</glyph>
<glyph name="circumflexhook.case" format="2">
  <advance width="293"/>
  <anchor x="213" y="732" name="_top"/>
  <outline>
    <contour>
      <point x="229" y="832" type="line"/>
      <point x="281" y="788" type="line"/>
      <point x="369" y="788" type="line"/>
      <point x="288" y="913" type="line"/>
      <point x="190" y="913" type="line"/>
      <point x="76" y="788" type="line"/>
      <point x="162" y="788" type="line"/>
    </contour>
    <contour>
      <point x="217" y="933" type="line"/>
      <point x="262" y="933" type="line"/>
      <point x="275" y="975" type="line"/>
      <point x="337" y="976"/>
      <point x="370" y="1013"/>
      <point x="370" y="1061" type="curve" smooth="yes"/>
      <point x="370" y="1103"/>
      <point x="332" y="1125"/>
      <point x="284" y="1125" type="curve" smooth="yes"/>
      <point x="252" y="1125"/>
      <point x="216" y="1115"/>
      <point x="187" y="1097" type="curve"/>
      <point x="203" y="1050" type="line"/>
      <point x="220" y="1058"/>
      <point x="240" y="1064"/>
      <point x="255" y="1064" type="curve" smooth="yes"/>
      <point x="273" y="1064"/>
      <point x="284" y="1058"/>
      <point x="284" y="1043" type="curve" smooth="yes"/>
      <point x="284" y="1017"/>
      <point x="265" y="1010"/>
      <point x="245" y="1010" type="curve" smooth="yes"/>
      <point x="235" y="1010"/>
      <point x="224" y="1012"/>
      <point x="215" y="1015" type="curve"/>
    </contour>
  </outline>
</glyph>
<glyph name="circumflextilde.case" format="2">
  <advance width="300"/>
  <anchor x="214" y="732" name="_top"/>
  <outline>
    <contour>
      <point x="230" y="832" type="line"/>
      <point x="282" y="788" type="line"/>
      <point x="370" y="788" type="line"/>
      <point x="289" y="913" type="line"/>
      <point x="191" y="913" type="line"/>
      <point x="77" y="788" type="line"/>
      <point x="163" y="788" type="line"/>
    </contour>
    <contour>
      <point x="417" y="1073" type="curve"/>
      <point x="353" y="1073" type="line"/>
      <point x="350" y="1053"/>
      <point x="335" y="1043"/>
      <point x="318" y="1043" type="curve" smooth="yes"/>
      <point x="280" y="1043"/>
      <point x="269" y="1083"/>
      <point x="214" y="1083" type="curve" smooth="yes"/>
      <point x="146" y="1083"/>
      <point x="110" y="1030"/>
      <point x="101" y="966" type="curve"/>
      <point x="166" y="966" type="line"/>
      <point x="169" y="986"/>
      <point x="184" y="996"/>
      <point x="201" y="996" type="curve" smooth="yes"/>
      <point x="239" y="996"/>
      <point x="250" y="956"/>
      <point x="305" y="956" type="curve" smooth="yes"/>
      <point x="373" y="956"/>
      <point x="408" y="1009"/>
    </contour>
  </outline>
</glyph>
<glyph name="commaabove" format="2">
  <advance width="309"/>
  <anchor x="193" y="497" name="_top"/>
  <outline>
    <contour>
      <point x="226" y="796" type="curve" smooth="yes"/>
      <point x="194" y="796"/>
      <point x="165" y="769"/>
      <point x="161" y="737" type="curve" smooth="yes"/>
      <point x="154" y="692"/>
      <point x="193" y="684"/>
      <point x="190" y="663" type="curve" smooth="yes"/>
      <point x="188" y="646"/>
      <point x="159" y="615"/>
      <point x="143" y="602" type="curve"/>
      <point x="171" y="568" type="line"/>
      <point x="224" y="603"/>
      <point x="274" y="656"/>
      <point x="283" y="718" type="curve" smooth="yes"/>
      <point x="289" y="758"/>
      <point x="269" y="796"/>
    </contour>
  </outline>
</glyph>
<glyph name="dblgrave" format="2">
  <advance width="381"/>
  <anchor x="279" y="497" name="_top"/>
  <outline>
    <contour>
      <point x="371" y="735" type="line"/>
      <point x="236" y="735" type="line"/>
      <point x="323" y="570" type="line"/>
      <point x="416" y="570" type="line"/>
    </contour>
    <contour>
      <point x="214" y="735" type="line"/>
      <point x="79" y="735" type="line"/>
      <point x="166" y="570" type="line"/>
      <point x="259" y="570" type="line"/>
    </contour>
  </outline>
</glyph>
<glyph name="dieresiscaron.case" format="2">
  <advance width="307"/>
  <anchor x="222" y="732" name="_top"/>
  <outline>
    <contour>
      <point x="217" y="861" type="curve" smooth="yes"/>
      <point x="217" y="892"/>
      <point x="194" y="915"/>
      <point x="162" y="915" type="curve" smooth="yes"/>
      <point x="124" y="915"/>
      <point x="89" y="882"/>
      <point x="89" y="843" type="curve" smooth="yes"/>
      <point x="89" y="812"/>
      <point x="112" y="789"/>
      <point x="144" y="789" type="curve" smooth="yes"/>
      <point x="182" y="789"/>
      <point x="217" y="822"/>
    </contour>
    <contour>
      <point x="388" y="861" type="curve" smooth="yes"/>
      <point x="388" y="892"/>
      <point x="364" y="915"/>
      <point x="332" y="915" type="curve" smooth="yes"/>
      <point x="295" y="915"/>
      <point x="259" y="881"/>
      <point x="259" y="843" type="curve" smooth="yes"/>
      <point x="259" y="813"/>
      <point x="283" y="789"/>
      <point x="314" y="789" type="curve" smooth="yes"/>
      <point x="352" y="789"/>
      <point x="388" y="822"/>
    </contour>
    <contour>
      <point x="264" y="1027" type="line"/>
      <point x="212" y="1071" type="line"/>
      <point x="124" y="1071" type="line"/>
      <point x="205" y="946" type="line"/>
      <point x="303" y="946" type="line"/>
      <point x="417" y="1071" type="line"/>
      <point x="331" y="1071" type="line"/>
    </contour>
  </outline>
</glyph>
<glyph name="dieresisgrave.case" format="2">
  <advance width="326"/>
  <anchor x="235" y="732" name="_top"/>
  <outline>
    <contour>
      <point x="262" y="1077" type="line"/>
      <point x="127" y="1077" type="line"/>
      <point x="221" y="952" type="line"/>
      <point x="314" y="952" type="line"/>
    </contour>
    <contour>
      <point x="274" y="843" type="curve" smooth="yes"/>
      <point x="274" y="812"/>
      <point x="297" y="789"/>
      <point x="329" y="789" type="curve" smooth="yes"/>
      <point x="367" y="789"/>
      <point x="402" y="822"/>
      <point x="402" y="861" type="curve" smooth="yes"/>
      <point x="402" y="892"/>
      <point x="378" y="915"/>
      <point x="346" y="915" type="curve" smooth="yes"/>
      <point x="308" y="915"/>
      <point x="274" y="882"/>
    </contour>
    <contour>
      <point x="103" y="843" type="curve" smooth="yes"/>
      <point x="103" y="812"/>
      <point x="127" y="789"/>
      <point x="159" y="789" type="curve" smooth="yes"/>
      <point x="195" y="789"/>
      <point x="231" y="822"/>
      <point x="231" y="859" type="curve" smooth="yes"/>
      <point x="231" y="890"/>
      <point x="208" y="915"/>
      <point x="176" y="915" type="curve" smooth="yes"/>
      <point x="138" y="915"/>
      <point x="103" y="882"/>
    </contour>
  </outline>
</glyph>
<glyph name="dotaccent.case" format="2">
  <advance width="297"/>
  <anchor x="217" y="732" name="_top"/>
  <outline>
    <contour>
      <point x="298" y="861" type="curve" smooth="yes"/>
      <point x="298" y="892"/>
      <point x="274" y="915"/>
      <point x="242" y="915" type="curve" smooth="yes"/>
      <point x="205" y="915"/>
      <point x="169" y="881"/>
      <point x="169" y="843" type="curve" smooth="yes"/>
      <point x="169" y="813"/>
      <point x="193" y="789"/>
      <point x="224" y="789" type="curve" smooth="yes"/>
      <point x="262" y="789"/>
      <point x="298" y="822"/>
    </contour>
  </outline>
</glyph>
<glyph name="dotbelow" format="2">
  <advance width="301"/>
  <anchor x="115" y="0" name="_bottom"/>
  <outline>
    <contour>
      <point x="161" y="-123" type="curve" smooth="yes"/>
      <point x="161" y="-92"/>
      <point x="137" y="-69"/>
      <point x="105" y="-69" type="curve" smooth="yes"/>
      <point x="68" y="-69"/>
      <point x="32" y="-103"/>
      <point x="32" y="-141" type="curve" smooth="yes"/>
      <point x="32" y="-171"/>
      <point x="56" y="-195"/>
      <point x="87" y="-195" type="curve" smooth="yes"/>
      <point x="125" y="-195"/>
      <point x="161" y="-162"/>
    </contour>
  </outline>
</glyph>
<glyph name="eight.lf" format="2">
  <advance width="568"/>
  <outline>
    <contour>
      <point x="359" y="711" type="curve" smooth="yes"/>
      <point x="229" y="711"/>
      <point x="107" y="630"/>
      <point x="107" y="506" type="curve" smooth="yes"/>
      <point x="107" y="335"/>
      <point x="380" y="300.01"/>
      <point x="380" y="186" type="curve" smooth="yes"/>
      <point x="380" y="122"/>
      <point x="316" y="67"/>
      <point x="244" y="67" type="curve" smooth="yes"/>
      <point x="193" y="67"/>
      <point x="145" y="95"/>
      <point x="145" y="155" type="curve" smooth="yes"/>
      <point x="145" y="212"/>
      <point x="178" y="275"/>
      <point x="277" y="314" type="curve"/>
      <point x="225" y="373" type="line"/>
      <point x="85" y="313"/>
      <point x="33" y="227"/>
      <point x="33" y="148" type="curve" smooth="yes"/>
      <point x="33" y="41"/>
      <point x="134" y="-13"/>
      <point x="243" y="-13" type="curve" smooth="yes"/>
      <point x="385" y="-13"/>
      <point x="514" y="75"/>
      <point x="514" y="212" type="curve" smooth="yes"/>
      <point x="514" y="392"/>
      <point x="239" y="420"/>
      <point x="239" y="530" type="curve" smooth="yes"/>
      <point x="239" y="587"/>
      <point x="293" y="633"/>
      <point x="351" y="633" type="curve" smooth="yes"/>
      <point x="391" y="633"/>
      <point x="427" y="610"/>
      <point x="427" y="561" type="curve" smooth="yes"/>
      <point x="427" y="499"/>
      <point x="367" y="437"/>
      <point x="303" y="413" type="curve"/>
      <point x="370" y="370" type="line"/>
      <point x="491" y="430"/>
      <point x="538" y="506"/>
      <point x="538" y="577" type="curve" smooth="yes"/>
      <point x="538" y="666"/>
      <point x="454" y="711"/>
    </contour>
  </outline>
</glyph>
<glyph name="f_f" format="2">
  <advance width="598"/>
  <outline>
    <contour>
      <point x="-104" y="-149" type="curve"/>
      <point x="-120" y="-216" type="line"/>
      <point x="22" y="-260"/>
      <point x="127" y="-204"/>
      <point x="149" y="-47" type="curve" smooth="yes"/>
      <point x="211" y="414" type="line"/>
      <point x="329" y="414" type="line"/>
      <point x="340" y="497" type="line"/>
      <point x="222" y="497" type="line"/>
      <point x="232" y="567"/>
      <point x="244" y="694"/>
      <point x="318" y="694" type="curve" smooth="yes"/>
      <point x="351" y="694"/>
      <point x="373" y="680"/>
      <point x="402" y="654" type="curve"/>
      <point x="451" y="733" type="line"/>
      <point x="413" y="759"/>
      <point x="366" y="776"/>
      <point x="317" y="776" type="curve" smooth="yes"/>
      <point x="175" y="776"/>
      <point x="141" y="660"/>
      <point x="117" y="545" type="curve" smooth="yes"/>
      <point x="107" y="497"/>
      <point x="62" y="497"/>
      <point x="28" y="497" type="curve"/>
      <point x="18" y="414" type="line"/>
      <point x="97" y="414" type="line"/>
      <point x="36" y="-35" type="line" smooth="yes"/>
      <point x="24" y="-121"/>
      <point x="-10" y="-174"/>
    </contour>
    <contour>
      <point x="195" y="-149" type="curve"/>
      <point x="179" y="-216" type="line"/>
      <point x="321" y="-260"/>
      <point x="426" y="-204"/>
      <point x="448" y="-47" type="curve" smooth="yes"/>
      <point x="510" y="414" type="line"/>
      <point x="628" y="414" type="line"/>
      <point x="639" y="497" type="line"/>
      <point x="521" y="497" type="line"/>
      <point x="531" y="567"/>
      <point x="556" y="694"/>
      <point x="643" y="694" type="curve" smooth="yes"/>
      <point x="686" y="694"/>
      <point x="710" y="682"/>
      <point x="741" y="654" type="curve"/>
      <point x="790" y="733" type="line"/>
      <point x="752" y="759"/>
      <point x="692" y="776"/>
      <point x="646" y="776" type="curve" smooth="yes"/>
      <point x="484" y="776"/>
      <point x="451" y="660"/>
      <point x="416" y="545" type="curve" smooth="yes"/>
      <point x="401" y="497"/>
      <point x="361" y="497"/>
      <point x="327" y="497" type="curve"/>
      <point x="317" y="414" type="line"/>
      <point x="396" y="414" type="line"/>
      <point x="335" y="-35" type="line" smooth="yes"/>
      <point x="323" y="-121"/>
      <point x="289" y="-174"/>
    </contour>
  </outline>
</glyph>
<glyph name="f_iacute" format="2">
  <advance width="548"/>
  <outline>
    <contour>
      <point x="-104" y="-149" type="curve"/>
      <point x="-120" y="-216" type="line"/>
      <point x="22" y="-260"/>
      <point x="127" y="-204"/>
      <point x="149" y="-47" type="curve" smooth="yes"/>
      <point x="211" y="414" type="line"/>
      <point x="459" y="414" type="line"/>
      <point x="470" y="497" type="line"/>
      <point x="222" y="497" type="line"/>
      <point x="232" y="567"/>
      <point x="248" y="694"/>
      <point x="331" y="694" type="curve" smooth="yes"/>
      <point x="371" y="694"/>
      <point x="397" y="686"/>
      <point x="428" y="658" type="curve"/>
      <point x="487" y="733" type="line"/>
      <point x="449" y="759"/>
      <point x="385" y="776"/>
      <point x="339" y="776" type="curve" smooth="yes"/>
      <point x="177" y="776"/>
      <point x="152" y="660"/>
      <point x="117" y="545" type="curve" smooth="yes"/>
      <point x="102" y="497"/>
      <point x="62" y="497"/>
      <point x="28" y="497" type="curve"/>
      <point x="18" y="414" type="line"/>
      <point x="97" y="414" type="line"/>
      <point x="36" y="-35" type="line" smooth="yes"/>
      <point x="24" y="-121"/>
      <point x="-10" y="-174"/>
    </contour>
    <contour>
      <point x="471" y="0" type="line"/>
      <point x="468" y="55" type="line"/>
      <point x="527" y="497" type="line"/>
      <point x="403" y="497" type="line"/>
      <point x="406" y="443" type="line"/>
      <point x="347" y="0" type="line"/>
    </contour>
    <contour>
      <point x="560" y="735" type="line"/>
      <point x="427" y="570" type="line"/>
      <point x="530" y="570" type="line"/>
      <point x="705" y="735" type="line"/>
    </contour>
  </outline>
</glyph>
<glyph name="four.lf" format="2">
  <advance width="552"/>
  <outline>
    <contour>
      <point x="363" y="698" type="line"/>
      <point x="22" y="237" type="line"/>
      <point x="14" y="179" type="line"/>
      <point x="296" y="179" type="line"/>
      <point x="271" y="0" type="line"/>
      <point x="396" y="0" type="line"/>
      <point x="421" y="179" type="line"/>
      <point x="500" y="179" type="line"/>
      <point x="542" y="279" type="line"/>
      <point x="435" y="279" type="line"/>
      <point x="494" y="698" type="line"/>
    </contour>
    <contour>
      <point x="348" y="549" type="line"/>
      <point x="310" y="279" type="line"/>
      <point x="151" y="279" type="line"/>
    </contour>
  </outline>
</glyph>
<glyph name="grave.case" format="2">
  <advance width="315"/>
  <anchor x="301" y="732" name="_top"/>
  <outline>
    <contour>
      <point x="271" y="923" type="line"/>
      <point x="125" y="923" type="line"/>
      <point x="256" y="779" type="line"/>
      <point x="360" y="779" type="line"/>
    </contour>
  </outline>
</glyph>
<glyph name="hook" format="2">
  <advance width="277"/>
  <anchor x="150" y="497" name="_top"/>
  <outline>
    <contour>
      <point x="136" y="553" type="line"/>
      <point x="186" y="553" type="line"/>
      <point x="201" y="599" type="line"/>
      <point x="259" y="601"/>
      <point x="305" y="642"/>
      <point x="305" y="696" type="curve" smooth="yes"/>
      <point x="305" y="741"/>
      <point x="262" y="764"/>
      <point x="210" y="764" type="curve" smooth="yes"/>
      <point x="175" y="764"/>
      <point x="136" y="754"/>
      <point x="104" y="734" type="curve"/>
      <point x="122" y="682" type="line"/>
      <point x="141" y="691"/>
      <point x="162" y="697"/>
      <point x="179" y="697" type="curve" smooth="yes"/>
      <point x="198" y="697"/>
      <point x="211" y="690"/>
      <point x="211" y="674" type="curve" smooth="yes"/>
      <point x="211" y="646"/>
      <point x="189" y="638"/>
      <point x="167" y="638" type="curve" smooth="yes"/>
      <point x="156" y="638"/>
      <point x="144" y="640"/>
      <point x="135" y="643" type="curve"/>
    </contour>
  </outline>
</glyph>
<glyph name="hungarumlaut.case" format="2">
  <advance width="381"/>
  <anchor x="205" y="732" name="_top"/>
  <outline>
    <contour>
      <point x="174" y="923" type="line"/>
      <point x="85" y="779" type="line"/>
      <point x="178" y="779" type="line"/>
      <point x="309" y="923" type="line"/>
    </contour>
    <contour>
      <point x="331" y="923" type="line"/>
      <point x="242" y="779" type="line"/>
      <point x="335" y="779" type="line"/>
      <point x="466" y="923" type="line"/>
    </contour>
  </outline>
</glyph>
<glyph name="periodcentered.loclCAT" format="2">
  <advance width="293"/>
  <anchor x="-21" y="341" name="_center"/>
  <outline>
    <contour>
      <point x="224" y="269" type="curve" smooth="yes"/>
      <point x="224" y="305"/>
      <point x="196" y="333"/>
      <point x="158" y="333" type="curve" smooth="yes"/>
      <point x="114" y="333"/>
      <point x="71" y="293"/>
      <point x="71" y="246" type="curve" smooth="yes"/>
      <point x="71" y="210"/>
      <point x="99" y="182"/>
      <point x="137" y="182" type="curve" smooth="yes"/>
      <point x="181" y="182"/>
      <point x="224" y="222"/>
    </contour>
  </outline>
</glyph>
<glyph name="seven.lf" format="2">
  <advance width="491"/>
  <outline>
    <contour>
      <point x="120" y="697" type="line"/>
      <point x="72" y="586" type="line"/>
      <point x="391" y="586" type="line"/>
      <point x="13" y="0" type="line"/>
      <point x="154" y="0" type="line"/>
      <point x="518" y="634" type="line"/>
      <point x="527" y="697" type="line"/>
    </contour>
  </outline>
</glyph>
<glyph name="six.lf" format="2">
  <advance width="596"/>
  <outline>
    <contour>
      <point x="530" y="710" type="line"/>
      <point x="284" y="642"/>
      <point x="49" y="432"/>
      <point x="49" y="192" type="curve" smooth="yes"/>
      <point x="49" y="53"/>
      <point x="141" y="-12"/>
      <point x="254" y="-12" type="curve" smooth="yes"/>
      <point x="410" y="-12"/>
      <point x="541" y="112"/>
      <point x="541" y="260" type="curve" smooth="yes"/>
      <point x="541" y="347"/>
      <point x="488" y="421"/>
      <point x="367" y="421" type="curve" smooth="yes"/>
      <point x="321" y="421"/>
      <point x="270" y="408"/>
      <point x="218" y="380" type="curve"/>
      <point x="192" y="296" type="line"/>
      <point x="235" y="323"/>
      <point x="277" y="336"/>
      <point x="312" y="336" type="curve" smooth="yes"/>
      <point x="378" y="336"/>
      <point x="407" y="290"/>
      <point x="407" y="237" type="curve" smooth="yes"/>
      <point x="407" y="161"/>
      <point x="355" y="71"/>
      <point x="270" y="71" type="curve" smooth="yes"/>
      <point x="217" y="71"/>
      <point x="180" y="109"/>
      <point x="180" y="188" type="curve" smooth="yes"/>
      <point x="180" y="381"/>
      <point x="336" y="547"/>
      <point x="549" y="645" type="curve"/>
    </contour>
  </outline>
</glyph>
<glyph name="slashshortcomb.case" format="2">
  <anchor x="159" y="340" name="_center"/>
  <outline>
    <contour>
      <point x="-4" y="215" type="line"/>
      <point x="423" y="400" type="line"/>
      <point x="437" y="498" type="line"/>
      <point x="10" y="312" type="line"/>
    </contour>
  </outline>
</glyph>
<glyph name="three.lf" format="2">
  <advance width="503"/>
  <outline>
    <contour>
      <point x="487" y="585" type="curve" smooth="yes"/>
      <point x="487" y="671"/>
      <point x="418" y="711"/>
      <point x="328" y="711" type="curve" smooth="yes"/>
      <point x="256" y="711"/>
      <point x="170" y="685"/>
      <point x="97" y="637" type="curve"/>
      <point x="146" y="555" type="line"/>
      <point x="195" y="598"/>
      <point x="250" y="619"/>
      <point x="291" y="619" type="curve" smooth="yes"/>
      <point x="330" y="619"/>
      <point x="358" y="600"/>
      <point x="358" y="560" type="curve" smooth="yes"/>
      <point x="358" y="500"/>
      <point x="287" y="425"/>
      <point x="130" y="369" type="curve"/>
      <point x="150" y="311" type="line"/>
      <point x="172" y="319"/>
      <point x="194" y="322"/>
      <point x="215" y="322" type="curve" smooth="yes"/>
      <point x="284" y="322"/>
      <point x="317" y="281"/>
      <point x="317" y="232" type="curve" smooth="yes"/>
      <point x="317" y="155"/>
      <point x="240" y="59"/>
      <point x="103" y="59" type="curve" smooth="yes"/>
      <point x="81" y="59"/>
      <point x="58" y="61"/>
      <point x="35" y="66" type="curve"/>
      <point x="10" y="0" type="line"/>
      <point x="43" y="-7"/>
      <point x="76" y="-11"/>
      <point x="109" y="-11" type="curve" smooth="yes"/>
      <point x="327" y="-11"/>
      <point x="451" y="128"/>
      <point x="451" y="240" type="curve" smooth="yes"/>
      <point x="451" y="308"/>
      <point x="405" y="366"/>
      <point x="309" y="380" type="curve"/>
      <point x="424" y="434"/>
      <point x="487" y="507"/>
    </contour>
  </outline>
</glyph>
<glyph name="tildemacron" format="2">
  <advance width="358"/>
  <anchor x="216" y="497" name="_top"/>
  <outline>
    <contour>
      <point x="415" y="706" type="curve"/>
      <point x="351" y="706" type="line"/>
      <point x="347" y="686"/>
      <point x="322" y="676"/>
      <point x="305" y="676" type="curve" smooth="yes"/>
      <point x="267" y="676"/>
      <point x="236" y="716"/>
      <point x="181" y="716" type="curve" smooth="yes"/>
      <point x="113" y="716"/>
      <point x="67" y="663"/>
      <point x="58" y="599" type="curve"/>
      <point x="123" y="599" type="line"/>
      <point x="126" y="619"/>
      <point x="151" y="629"/>
      <point x="168" y="629" type="curve" smooth="yes"/>
      <point x="206" y="629"/>
      <point x="237" y="589"/>
      <point x="292" y="589" type="curve" smooth="yes"/>
      <point x="360" y="589"/>
      <point x="406" y="642"/>
    </contour>
    <contour>
      <point x="104" y="830" type="line"/>
      <point x="94" y="756" type="line"/>
      <point x="409" y="756" type="line"/>
      <point x="419" y="830" type="line"/>
    </contour>
  </outline>
</glyph>
<glyph name="two.lf" format="2">
  <advance width="540"/>
  <guideline x="539" y="709" angle="0"/>
  <guideline x="539" y="615" angle="0"/>
  <outline>
    <contour>
      <point x="209" y="99" type="line"/>
      <point x="355" y="199"/>
      <point x="521" y="351"/>
      <point x="521" y="529" type="curve" smooth="yes"/>
      <point x="521" y="647"/>
      <point x="433" y="709"/>
      <point x="324" y="709" type="curve" smooth="yes"/>
      <point x="252" y="709"/>
      <point x="171" y="680"/>
      <point x="104" y="617" type="curve"/>
      <point x="152" y="535" type="line"/>
      <point x="204" y="589"/>
      <point x="257" y="615"/>
      <point x="300" y="615" type="curve" smooth="yes"/>
      <point x="356" y="615"/>
      <point x="385" y="578"/>
      <point x="385" y="511" type="curve" smooth="yes"/>
      <point x="385" y="352"/>
      <point x="198" y="178"/>
      <point x="24" y="77" type="curve"/>
      <point x="13" y="0" type="line"/>
      <point x="453" y="0" type="line"/>
      <point x="488" y="99" type="line"/>
    </contour>
  </outline>
</glyph>
<glyph name="zero.lf" format="2">
  <advance width="604"/>
  <outline>
    <contour>
      <point x="368" y="710" type="curve" smooth="yes"/>
      <point x="144" y="710"/>
      <point x="57" y="475"/>
      <point x="57" y="235" type="curve" smooth="yes"/>
      <point x="57" y="69"/>
      <point x="129" y="-12"/>
      <point x="264" y="-12" type="curve" smooth="yes"/>
      <point x="487" y="-12"/>
      <point x="575" y="229"/>
      <point x="575" y="468" type="curve" smooth="yes"/>
      <point x="575" y="632"/>
      <point x="504" y="710"/>
    </contour>
    <contour>
      <point x="355" y="629" type="curve" smooth="yes"/>
      <point x="422" y="629"/>
      <point x="446" y="580"/>
      <point x="446" y="490" type="curve" smooth="yes"/>
      <point x="446" y="297"/>
      <point x="406" y="69"/>
      <point x="277" y="69" type="curve" smooth="yes"/>
      <point x="208" y="69"/>
      <point x="184" y="115"/>
      <point x="184" y="203" type="curve" smooth="yes"/>
      <point x="184" y="388"/>
      <point x="229" y="629"/>
    </contour>
  </outline>
</glyph>
<glyph name="zero.zero" format="2">
  <advance width="579"/>
  <outline>
    <contour>
      <point x="142" y="91" type="line"/>
      <point x="204" y="48" type="line"/>
      <point x="426" y="406" type="line"/>
      <point x="363" y="448" type="line"/>
    </contour>
    <component base="zero"/>
  </outline>
</glyph>
